<svg width="32" height="33" viewBox="0 0 32 33" fill="none" xmlns="http://www.w3.org/2000/svg">
<path d="M6.74589 20.5692C6.74589 22.429 5.24391 23.9322 3.38552 23.9322C1.52713 23.9322 0.0251465 22.429 0.0251465 20.5692C0.0251465 18.7093 1.52713 17.2061 3.38552 17.2061H6.74589V20.5692ZM8.42608 20.5692C8.42608 18.7093 9.92807 17.2061 11.7865 17.2061C13.6449 17.2061 15.1469 18.7093 15.1469 20.5692V28.9768C15.1469 30.8367 13.6449 32.3399 11.7865 32.3399C9.92807 32.3399 8.42608 30.8367 8.42608 28.9768V20.5692Z" fill="#E01E5A"/>
<path d="M11.7868 7.06596C9.92838 7.06596 8.42639 5.56277 8.42639 3.7029C8.42639 1.84302 9.92838 0.339844 11.7868 0.339844C13.6452 0.339844 15.1471 1.84302 15.1471 3.7029V7.06596H11.7868ZM11.7868 8.77296C13.6452 8.77296 15.1471 10.2762 15.1471 12.136C15.1471 13.9959 13.6452 15.499 11.7868 15.499H3.36037C1.50199 15.499 0 13.9959 0 12.136C0 10.2762 1.50199 8.77296 3.36037 8.77296H11.7868Z" fill="#36C5F0"/>
<path d="M25.2537 12.136C25.2537 10.2762 26.7557 8.77296 28.6141 8.77296C30.4724 8.77296 31.9744 10.2762 31.9744 12.136C31.9744 13.9959 30.4724 15.499 28.6141 15.499H25.2537V12.136ZM23.5735 12.136C23.5735 13.9959 22.0715 15.499 20.2131 15.499C18.3547 15.499 16.8528 13.9959 16.8528 12.136V3.7029C16.8528 1.84302 18.3547 0.339844 20.2131 0.339844C22.0715 0.339844 23.5735 1.84302 23.5735 3.7029V12.136Z" fill="#2EB67D"/>
<path d="M20.2131 25.6138C22.0715 25.6138 23.5735 27.1169 23.5735 28.9768C23.5735 30.8367 22.0715 32.3399 20.2131 32.3399C18.3547 32.3399 16.8528 30.8367 16.8528 28.9768V25.6138H20.2131ZM20.2131 23.9322C18.3547 23.9322 16.8528 22.429 16.8528 20.5692C16.8528 18.7093 18.3547 17.2061 20.2131 17.2061H28.6395C30.4979 17.2061 31.9999 18.7093 31.9999 20.5692C31.9999 22.429 30.4979 23.9322 28.6395 23.9322H20.2131Z" fill="#ECB22E"/>
</svg>
