<svg width="33" height="27" viewBox="0 0 33 27" fill="none" xmlns="http://www.w3.org/2000/svg">
<path d="M10.2011 26.7198C22.4483 26.7198 29.1498 16.5677 29.1498 7.77874C29.1498 7.49311 29.1498 7.20748 29.1369 6.92186C30.4356 5.98714 31.5655 4.80575 32.4616 3.46857C31.2668 4.00085 29.981 4.35137 28.6303 4.52014C30.007 3.70225 31.059 2.39104 31.5655 0.83317C30.2797 1.59912 28.8511 2.14438 27.3316 2.44298C26.1107 1.14474 24.3834 0.339844 22.4742 0.339844C18.7988 0.339844 15.8117 3.32577 15.8117 6.99974C15.8117 7.51903 15.8766 8.02539 15.9805 8.5187C10.4478 8.24606 5.53854 5.58469 2.25271 1.56018C1.68126 2.54683 1.35657 3.68927 1.35657 4.90961C1.35657 7.22047 2.53844 9.25872 4.31772 10.4531C3.22677 10.4141 2.20076 10.1155 1.30462 9.62217C1.30462 9.64816 1.30462 9.67414 1.30462 9.71305C1.30462 12.9326 3.60341 15.633 6.64252 16.2432C6.08403 16.3989 5.49959 16.4769 4.88918 16.4769C4.46059 16.4769 4.04498 16.4378 3.64237 16.36C4.48656 19.0084 6.95419 20.9297 9.86336 20.9817C7.57754 22.7733 4.70735 23.8378 1.59035 23.8378C1.05786 23.8378 0.525374 23.8118 0.00587463 23.7469C2.94105 25.6164 6.44767 26.7198 10.2011 26.7198Z" fill="#55ACEE"/>
</svg>
