<svg width="32" height="33" viewBox="0 0 32 33" fill="none" xmlns="http://www.w3.org/2000/svg">
<g clip-path="url(#clip0_101_405)">
<path d="M8.5 16.3799L5.078 20.1879C4.57333 20.6868 4.17227 21.2805 3.89787 21.935C3.62348 22.5894 3.48117 23.2917 3.47913 24.0013C3.47709 24.7109 3.61536 25.414 3.88599 26.07C4.15661 26.726 4.55426 27.322 5.05605 27.8238C5.55784 28.3256 6.15388 28.7233 6.80989 28.9939C7.46591 29.2645 8.16895 29.4028 8.87859 29.4007C9.58822 29.3987 10.2905 29.2564 10.9449 28.982C11.5994 28.7076 12.1931 28.3066 12.692 27.8019L16.5 24.3799M23.5 17.3799L26.922 13.5719C27.436 13.0751 27.846 12.481 28.1279 11.8241C28.4099 11.1672 28.5582 10.4608 28.5643 9.74599C28.5703 9.03119 28.434 8.32234 28.1632 7.66079C27.8924 6.99924 27.4925 6.39824 26.987 5.89285C26.4815 5.38745 25.8804 4.98779 25.2188 4.71716C24.5571 4.44654 23.8483 4.31038 23.1335 4.31662C22.4187 4.32286 21.7122 4.47137 21.0555 4.75351C20.3987 5.03564 19.8046 5.44574 19.308 5.95988L15.5 9.37988M13.5 19.3799L18.5 14.3799" stroke="white" stroke-width="3" stroke-linecap="round" stroke-linejoin="round"/>
</g>
<defs>
<clipPath id="clip0_101_405">
<rect width="32" height="32" fill="white" transform="translate(0 0.879883)"/>
</clipPath>
</defs>
</svg>
