<svg width="32" height="33" viewBox="0 0 32 33" fill="none" xmlns="http://www.w3.org/2000/svg">
<g clip-path="url(#clip0_101_256)">
<path d="M11.5 7.68994H9.5C8.96957 7.68994 8.46086 7.90066 8.08579 8.27573C7.71071 8.6508 7.5 9.15951 7.5 9.68994V11.6899M11.5 7.68994V3.68994M11.5 7.68994H20.5M7.5 11.6899V20.6899M7.5 11.6899H3.5M20.5 7.68994H22.5C23.0304 7.68994 23.5391 7.90066 23.9142 8.27573C24.2893 8.6508 24.5 9.15951 24.5 9.68994V11.6899M20.5 7.68994V3.68994M24.5 11.6899H28.5M24.5 11.6899V20.6899M11.5 28.6899V24.6899M20.5 28.6899V24.6899M24.5 20.6899V22.6899C24.5 23.2204 24.2893 23.7291 23.9142 24.1042C23.5391 24.4792 23.0304 24.6899 22.5 24.6899H9.5C8.96957 24.6899 8.46086 24.4792 8.08579 24.1042C7.71071 23.7291 7.5 23.2204 7.5 22.6899V20.6899M24.5 20.6899H28.5M7.5 20.6899H3.5" stroke="white" stroke-width="3" stroke-linecap="round" stroke-linejoin="round"/>
</g>
<defs>
<clipPath id="clip0_101_256">
<rect width="32" height="32" fill="white" transform="translate(0 0.189941)"/>
</clipPath>
</defs>
</svg>
