<svg width="32" height="33" viewBox="0 0 32 33" fill="none" xmlns="http://www.w3.org/2000/svg">
<path d="M13.476 12.616L4.09601 22.674C3.71163 23.0975 3.4987 23.649 3.4987 24.221C3.4987 24.7929 3.71163 25.3444 4.09601 25.768L6.26201 28.088C6.44427 28.2899 6.66689 28.4513 6.91545 28.5618C7.16401 28.6722 7.433 28.7293 7.705 28.7293C7.97701 28.7293 8.246 28.6722 8.49456 28.5618C8.74312 28.4513 8.96574 28.2899 9.148 28.088L18.524 18.032M13.476 12.616L14.196 11.842C14.5804 11.4184 14.7933 10.8669 14.7933 10.295C14.7933 9.723 14.5804 9.17152 14.196 8.74797L12.032 6.42797L12.752 5.65197C15.144 3.08997 19.02 3.08997 21.412 5.65197L27.902 12.616C28.7 13.47 28.7 14.856 27.902 15.71L25.74 18.03C25.5577 18.2315 25.3353 18.3927 25.0869 18.503C24.8385 18.6132 24.5698 18.6702 24.298 18.6702C24.0262 18.6702 23.7575 18.6132 23.5091 18.503C23.2608 18.3927 23.0383 18.2315 22.856 18.03L22.134 17.258C21.9517 17.0561 21.7291 16.8947 21.4806 16.7842C21.232 16.6737 20.963 16.6166 20.691 16.6166C20.419 16.6166 20.15 16.6737 19.9015 16.7842C19.6529 16.8947 19.4303 17.0561 19.248 17.258L18.528 18.032M13.476 12.616L18.524 18.03" stroke="white" stroke-width="3" stroke-linecap="round" stroke-linejoin="round"/>
</svg>
