<svg width="1920" height="1080" viewBox="0 0 1920 1080" xmlns="http://www.w3.org/2000/svg"><rect width="1920" height="1080" fill="#3d1053"/><path d="M1392,562.9999999999999C1414.6237513914175,616.7672192970282,1343.9136550654334,674.2330832781233,1283.2666661696167,737.1169011747197C1222.6196772737999,800.0007190713161,1103.745844320035,930.0291101088372,1028.118066625099,940.3029073795781C952.4902889301628,950.5767046503189,878.3930509291524,845.9570289798882,829.5000000000001,798.7596847991647C780.6069490708478,751.5623406184412,762.7405498493043,719.4550487196191,734.759761050185,657.1188422952373C706.7789722510657,594.7826358708555,650.5722796182752,496.22217437194126,661.6152672052843,424.7424462528743C672.6582547922935,353.2627181338073,737.433886668938,264.581365852911,801.0176865722405,228.2404735808356C864.6014864755429,191.89958130876022,985.3669880836201,175.6515739851362,1043.1180666250987,206.69709262042193C1100.8691451665773,237.74261125570766,1089.3771689252949,355.12976749595373,1147.5241578211117,414.51358539255006C1205.6711467169284,473.8974032891464,1369.3762486085825,509.2327807029716,1392,562.9999999999999C1414.6237513914175,616.7672192970282,1343.9136550654334,674.2330832781233,1283.2666661696167,737.1169011747197" fill="#b74e6b"/></svg>