<svg width="1920" height="1080" viewBox="0 0 1920 1080" xmlns="http://www.w3.org/2000/svg"><rect width="1920" height="1080" fill="#3d1053"/><path d="M1382.1113356258174,542.9999999999999C1374.4031253162955,602.4462962032715,1272.6829491459375,671.6156421455539,1216.0174043124844,732.8327933754836C1159.3518594790312,794.0499446054132,1115.8709673438464,886.1484518722979,1042.118066625099,910.3029073795781C968.3651659063515,934.4573628868583,836.418737981232,920.9605350739932,773.5000000000001,877.7595264191646C710.5812620187683,834.5585177643359,686.1753066537733,721.2663688116547,664.6056387377081,651.0968554506063C643.0359708216429,580.9273420895579,608.5327328809648,508.99587999026255,644.081992503609,456.7424462528743C679.6312521262531,404.489012515486,814.8369031700767,377.5838119650189,877.901196473573,337.57625302627685C940.9654897770694,297.56869408753477,958.4068407085796,210.2672987654923,1022.4677523245869,216.69709262042193C1086.528663940594,223.12688647535154,1202.326068952745,321.77119825925814,1262.2666661696167,376.15501615585447C1322.2072633864884,430.5388340524508,1389.8195459353394,483.55370379672837,1382.1113356258174,542.9999999999999C1374.4031253162955,602.4462962032715,1272.6829491459375,671.6156421455539,1216.0174043124844,732.8327933754836" fill="#b74e6b"/></svg>