<svg width="1920" height="1080" viewBox="0 0 1920 1080" xmlns="http://www.w3.org/2000/svg"><rect width="1920" height="1080" fill="#3d1053"/><path d="M1289.8437252729043,550.9999999999999C1296.341803720552,627.2644295000938,1308.054275944251,711.0025914626445,1269.2666661696167,762.5412233681113C1230.4790563949823,814.0798552735781,1124.773925804835,836.5287409242918,1057.118066625099,860.2317914328007C989.4622074453627,883.9348419413096,929.4468049980574,931.4218993667771,863.3315110911994,904.7595264191646C797.2162171843415,878.097153471552,686.8164326655004,777.8477604831257,660.4263031839515,700.2575537471258C634.0361737024026,622.6673470111259,676.8756037895804,498.085367214437,704.990734201906,439.2182860031654C733.1058646142316,380.35120479189385,775.0657640655892,384.1419320432869,829.1170856579049,347.0550664794963C883.1684072502206,309.9682009157057,962.4384787848293,223.7138293057467,1029.2986637558001,216.69709262042193C1096.1588487267709,209.68035593509714,1186.8540185642128,249.23749513761797,1230.27819548373,304.95464636754764C1273.7023724032474,360.6717975974773,1283.3456468252566,474.7355704999059,1289.8437252729043,550.9999999999999C1296.341803720552,627.2644295000938,1308.054275944251,711.0025914626445,1269.2666661696167,762.5412233681113" fill="#df6688"/></svg>