<svg width="1920" height="1080" viewBox="0 0 1920 1080" xmlns="http://www.w3.org/2000/svg"><rect width="1920" height="1080" fill="#3d1053"/><path d="M1185.860623844983,569C1195.3574274982943,618.9702645946536,1320.986297059995,673.472077181069,1314.7595264191646,729.9319982509298C1308.5327557783341,786.3919193207906,1197.9599210698607,875.7481927943195,1148.5,907.7595264191646C1099.0400789301393,939.7708600440096,1064.4500135926723,947.639307977897,1018,922C971.5499864073275,896.360692022103,926.5931728471595,784.5070118851158,869.7999184439655,753.9236785517825C813.0066640407714,723.3403452184491,707.8464777434898,767.8206130919639,677.2404735808356,738.5000000000001C646.6344694181813,709.1793869080363,676.036522643804,629.2547841518547,686.1638934680401,578C696.2912642922762,526.7452158481453,719.1153474375919,478.6247804778646,738.0046985262519,430.9712950888718C756.8940496149119,383.317809699879,754.8341164210417,329.5743035141884,799.4999999999998,292.0790876660431C844.1658835789578,254.5838718178978,949.1745832168704,209.30643568086796,1006,206C1062.8254167831296,202.69356431913204,1098.4893832822283,234.88873846700068,1140.4525006987776,272.2404735808354C1182.4156181153269,309.5922086946701,1250.2106839749285,380.65048961314756,1257.778704499296,430.1104106830083C1265.3467250236636,479.57033175286904,1176.3638201916715,519.0297354053464,1185.860623844983,569C1195.3574274982943,618.9702645946536,1320.986297059995,673.472077181069,1314.7595264191646,729.9319982509298" fill="#b74e6b"/></svg>