<svg width="229" height="356" viewBox="0 0 229 356" fill="none" xmlns="http://www.w3.org/2000/svg">
<mask id="mask0_101_305" style="mask-type:alpha" maskUnits="userSpaceOnUse" x="0" y="0" width="701" height="356">
<rect x="0.390015" y="0.72998" width="700" height="355" fill="url(#paint0_linear_101_305)"/>
</mask>
<g mask="url(#mask0_101_305)">
</g>
<g clip-path="url(#clip0_101_305)">
<g clip-path="url(#clip1_101_305)">
<path d="M8.39001 61.73C9.49458 61.73 10.39 60.8345 10.39 59.73C10.39 58.6254 9.49458 57.73 8.39001 57.73C7.28545 57.73 6.39001 58.6254 6.39001 59.73C6.39001 60.8345 7.28545 61.73 8.39001 61.73Z" fill="#A485FF"/>
<path d="M8.39001 67.23C12.5322 67.23 15.89 63.8721 15.89 59.73C15.89 55.5878 12.5322 52.23 8.39001 52.23C4.24788 52.23 0.890015 55.5878 0.890015 59.73C0.890015 63.8721 4.24788 67.23 8.39001 67.23Z" stroke="#A485FF"/>
</g>
<rect x="31.39" y="44.73" width="236.02" height="30" rx="15" fill="white" fill-opacity="0.05"/>
<rect x="31.89" y="45.23" width="235.02" height="29" rx="14.5" stroke="white" stroke-opacity="0.1"/>
<mask id="path-6-inside-1_101_305" fill="white">
<path d="M7.39001 -1.27002H9.39001V42.73H7.39001V-1.27002Z"/>
</mask>
<path d="M6.39001 -1.27002V2.02998H8.39001V-1.27002H6.39001ZM6.39001 6.42998V13.03H8.39001V6.42998H6.39001ZM6.39001 17.43V24.03H8.39001V17.43H6.39001ZM6.39001 28.43V35.03H8.39001V28.43H6.39001ZM6.39001 39.43V42.73H8.39001V39.43H6.39001ZM5.39001 -1.27002V2.02998H9.39001V-1.27002H5.39001ZM5.39001 6.42998V13.03H9.39001V6.42998H5.39001ZM5.39001 17.43V24.03H9.39001V17.43H5.39001ZM5.39001 28.43V35.03H9.39001V28.43H5.39001ZM5.39001 39.43V42.73H9.39001V39.43H5.39001Z" fill="white" fill-opacity="0.2" mask="url(#path-6-inside-1_101_305)"/>
<g clip-path="url(#clip2_101_305)">
<path d="M2.89001 134.23C3.99458 134.23 4.89001 133.335 4.89001 132.23C4.89001 131.125 3.99458 130.23 2.89001 130.23C1.78545 130.23 0.890015 131.125 0.890015 132.23C0.890015 133.335 1.78545 134.23 2.89001 134.23Z" stroke="#59D499"/>
<path d="M2.89001 145.23C3.99458 145.23 4.89001 144.335 4.89001 143.23C4.89001 142.125 3.99458 141.23 2.89001 141.23C1.78545 141.23 0.890015 142.125 0.890015 143.23C0.890015 144.335 1.78545 145.23 2.89001 145.23Z" stroke="#59D499"/>
<path d="M11.89 145.23C12.9946 145.23 13.89 144.335 13.89 143.23C13.89 142.125 12.9946 141.23 11.89 141.23C10.7854 141.23 9.89001 142.125 9.89001 143.23C9.89001 144.335 10.7854 145.23 11.89 145.23Z" stroke="#59D499"/>
<path d="M2.89001 141.73V133.73" stroke="#59D499"/>
<path d="M12.39 141.73V134.23H11.39V141.73H12.39ZM9.89001 131.73H8.39001V132.73H9.89001V131.73ZM12.39 134.23C12.39 133.902 12.3254 133.577 12.1997 133.273C12.0741 132.97 11.8899 132.694 11.6578 132.462C11.4256 132.23 11.15 132.046 10.8467 131.92C10.5434 131.795 10.2183 131.73 9.89001 131.73V132.73C10.2878 132.73 10.6694 132.888 10.9507 133.169C11.232 133.451 11.39 133.832 11.39 134.23H12.39Z" fill="#59D499"/>
<path d="M9.39001 134.73V129.73L6.39001 132.23L9.39001 134.73Z" fill="#59D499"/>
</g>
<rect x="31.39" y="122.73" width="311.02" height="30" rx="15" fill="white" fill-opacity="0.05"/>
<rect x="31.89" y="123.23" width="310.02" height="29" rx="14.5" stroke="white" stroke-opacity="0.1"/>
<path d="M48.3871 63.85C47.8111 63.85 47.3151 63.754 46.8991 63.562C46.4911 63.37 46.1751 63.094 45.9511 62.734C45.7271 62.374 45.6111 61.946 45.6031 61.45H46.6831C46.6831 61.89 46.8311 62.238 47.1271 62.494C47.4311 62.75 47.8511 62.878 48.3871 62.878C48.8911 62.878 49.2831 62.754 49.5631 62.506C49.8511 62.258 49.9951 61.914 49.9951 61.474C49.9951 61.122 49.8991 60.814 49.7071 60.55C49.5231 60.286 49.2551 60.102 48.9031 59.998L47.7151 59.626C47.1151 59.442 46.6511 59.134 46.3231 58.702C46.0031 58.27 45.8431 57.762 45.8431 57.178C45.8431 56.706 45.9471 56.298 46.1551 55.954C46.3711 55.602 46.6711 55.33 47.0551 55.138C47.4391 54.938 47.8911 54.838 48.4111 54.838C49.1791 54.838 49.7951 55.054 50.2591 55.486C50.7231 55.91 50.9591 56.478 50.9671 57.19H49.8871C49.8871 56.758 49.7551 56.422 49.4911 56.182C49.2351 55.934 48.8711 55.81 48.3991 55.81C47.9351 55.81 47.5711 55.922 47.3071 56.146C47.0511 56.37 46.9231 56.682 46.9231 57.082C46.9231 57.442 47.0191 57.754 47.2111 58.018C47.4031 58.282 47.6791 58.47 48.0391 58.582L49.2391 58.966C49.8231 59.15 50.2751 59.462 50.5951 59.902C50.9151 60.342 51.0751 60.858 51.0751 61.45C51.0751 61.93 50.9631 62.35 50.7391 62.71C50.5151 63.07 50.1991 63.35 49.7911 63.55C49.3911 63.75 48.9231 63.85 48.3871 63.85ZM55.2584 63.85C54.5624 63.85 54.0144 63.674 53.6144 63.322C53.2144 62.962 53.0144 62.478 53.0144 61.87C53.0144 61.254 53.2144 60.77 53.6144 60.418C54.0144 60.066 54.5544 59.89 55.2344 59.89H57.2744V59.23C57.2744 58.822 57.1504 58.51 56.9024 58.294C56.6624 58.07 56.3184 57.958 55.8704 57.958C55.4784 57.958 55.1504 58.042 54.8864 58.21C54.6224 58.37 54.4704 58.59 54.4304 58.87H53.3504C53.4224 58.302 53.6904 57.85 54.1544 57.514C54.6184 57.178 55.1984 57.01 55.8944 57.01C56.6544 57.01 57.2544 57.206 57.6944 57.598C58.1344 57.99 58.3544 58.522 58.3544 59.194V63.73H57.2984V62.47H57.1184L57.2984 62.29C57.2984 62.77 57.1104 63.15 56.7344 63.43C56.3664 63.71 55.8744 63.85 55.2584 63.85ZM55.5224 62.998C56.0344 62.998 56.4544 62.87 56.7824 62.614C57.1104 62.358 57.2744 62.03 57.2744 61.63V60.694H55.2584C54.8984 60.694 54.6144 60.794 54.4064 60.994C54.1984 61.194 54.0944 61.466 54.0944 61.81C54.0944 62.178 54.2184 62.47 54.4664 62.686C54.7224 62.894 55.0744 62.998 55.5224 62.998ZM60.8337 63.73V57.13H61.9137V58.39H62.1417L61.9137 58.642C61.9137 58.122 62.0697 57.722 62.3817 57.442C62.6937 57.154 63.1257 57.01 63.6777 57.01C64.3417 57.01 64.8697 57.214 65.2617 57.622C65.6537 58.03 65.8497 58.586 65.8497 59.29V63.73H64.7697V59.41C64.7697 58.938 64.6417 58.578 64.3857 58.33C64.1377 58.074 63.7977 57.946 63.3657 57.946C62.9177 57.946 62.5617 58.082 62.2977 58.354C62.0417 58.626 61.9137 59.018 61.9137 59.53V63.73H60.8337ZM70.441 63.85C69.785 63.85 69.253 63.63 68.845 63.19C68.445 62.75 68.245 62.154 68.245 61.402V59.47C68.245 58.71 68.445 58.11 68.845 57.67C69.245 57.23 69.777 57.01 70.441 57.01C70.985 57.01 71.421 57.158 71.749 57.454C72.077 57.75 72.241 58.146 72.241 58.642L72.025 58.39H72.265L72.241 56.89V54.97H73.321V63.73H72.241V62.47H72.025L72.241 62.218C72.241 62.722 72.077 63.122 71.749 63.418C71.421 63.706 70.985 63.85 70.441 63.85ZM70.801 62.914C71.249 62.914 71.601 62.774 71.857 62.494C72.113 62.214 72.241 61.826 72.241 61.33V59.53C72.241 59.034 72.113 58.646 71.857 58.366C71.601 58.086 71.249 57.946 70.801 57.946C70.345 57.946 69.985 58.082 69.721 58.354C69.457 58.626 69.325 59.018 69.325 59.53V61.33C69.325 61.842 69.457 62.234 69.721 62.506C69.985 62.778 70.345 62.914 70.801 62.914ZM76.8563 65.89L77.8283 63.322L75.3803 57.13H76.5803L78.1163 61.21C78.1723 61.346 78.2243 61.51 78.2723 61.702C78.3203 61.886 78.3603 62.042 78.3923 62.17C78.4243 62.042 78.4643 61.886 78.5123 61.702C78.5603 61.51 78.6083 61.346 78.6563 61.21L80.0963 57.13H81.2603L78.0083 65.89H76.8563ZM92.7349 63.85C92.0389 63.85 91.4909 63.674 91.0909 63.322C90.6909 62.962 90.4909 62.478 90.4909 61.87C90.4909 61.254 90.6909 60.77 91.0909 60.418C91.4909 60.066 92.0309 59.89 92.7109 59.89H94.7509V59.23C94.7509 58.822 94.6269 58.51 94.3789 58.294C94.1389 58.07 93.7949 57.958 93.3469 57.958C92.9549 57.958 92.6269 58.042 92.3629 58.21C92.0989 58.37 91.9469 58.59 91.9069 58.87H90.8269C90.8989 58.302 91.1669 57.85 91.6309 57.514C92.0949 57.178 92.6749 57.01 93.3709 57.01C94.1309 57.01 94.7309 57.206 95.1709 57.598C95.6109 57.99 95.8309 58.522 95.8309 59.194V63.73H94.7749V62.47H94.5949L94.7749 62.29C94.7749 62.77 94.5869 63.15 94.2109 63.43C93.8429 63.71 93.3509 63.85 92.7349 63.85ZM92.9989 62.998C93.5109 62.998 93.9309 62.87 94.2589 62.614C94.5869 62.358 94.7509 62.03 94.7509 61.63V60.694H92.7349C92.3749 60.694 92.0909 60.794 91.8829 60.994C91.6749 61.194 91.5709 61.466 91.5709 61.81C91.5709 62.178 91.6949 62.47 91.9429 62.686C92.1989 62.894 92.5509 62.998 92.9989 62.998ZM100.422 63.85C99.7663 63.85 99.2343 63.63 98.8263 63.19C98.4263 62.75 98.2263 62.154 98.2263 61.402V59.47C98.2263 58.71 98.4263 58.11 98.8263 57.67C99.2263 57.23 99.7583 57.01 100.422 57.01C100.966 57.01 101.402 57.158 101.73 57.454C102.058 57.75 102.222 58.146 102.222 58.642L102.006 58.39H102.246L102.222 56.89V54.97H103.302V63.73H102.222V62.47H102.006L102.222 62.218C102.222 62.722 102.058 63.122 101.73 63.418C101.402 63.706 100.966 63.85 100.422 63.85ZM100.782 62.914C101.23 62.914 101.582 62.774 101.838 62.494C102.094 62.214 102.222 61.826 102.222 61.33V59.53C102.222 59.034 102.094 58.646 101.838 58.366C101.582 58.086 101.23 57.946 100.782 57.946C100.326 57.946 99.9663 58.082 99.7023 58.354C99.4383 58.626 99.3063 59.018 99.3063 59.53V61.33C99.3063 61.842 99.4383 62.234 99.7023 62.506C99.9663 62.778 100.326 62.914 100.782 62.914ZM107.918 63.85C107.262 63.85 106.73 63.63 106.322 63.19C105.922 62.75 105.722 62.154 105.722 61.402V59.47C105.722 58.71 105.922 58.11 106.322 57.67C106.722 57.23 107.254 57.01 107.918 57.01C108.462 57.01 108.898 57.158 109.226 57.454C109.554 57.75 109.718 58.146 109.718 58.642L109.502 58.39H109.742L109.718 56.89V54.97H110.798V63.73H109.718V62.47H109.502L109.718 62.218C109.718 62.722 109.554 63.122 109.226 63.418C108.898 63.706 108.462 63.85 107.918 63.85ZM108.278 62.914C108.726 62.914 109.078 62.774 109.334 62.494C109.59 62.214 109.718 61.826 109.718 61.33V59.53C109.718 59.034 109.59 58.646 109.334 58.366C109.078 58.086 108.726 57.946 108.278 57.946C107.822 57.946 107.462 58.082 107.198 58.354C106.934 58.626 106.802 59.018 106.802 59.53V61.33C106.802 61.842 106.934 62.234 107.198 62.506C107.462 62.778 107.822 62.914 108.278 62.914ZM115.797 63.85C115.277 63.85 114.821 63.746 114.429 63.538C114.045 63.33 113.745 63.038 113.529 62.662C113.321 62.278 113.217 61.834 113.217 61.33V59.53C113.217 59.018 113.321 58.574 113.529 58.198C113.745 57.822 114.045 57.53 114.429 57.322C114.821 57.114 115.277 57.01 115.797 57.01C116.317 57.01 116.769 57.114 117.153 57.322C117.545 57.53 117.845 57.822 118.053 58.198C118.269 58.574 118.377 59.018 118.377 59.53V60.694H114.273V61.33C114.273 61.85 114.405 62.25 114.669 62.53C114.933 62.802 115.309 62.938 115.797 62.938C116.213 62.938 116.549 62.866 116.805 62.722C117.061 62.57 117.217 62.346 117.273 62.05H118.353C118.281 62.602 118.009 63.042 117.537 63.37C117.073 63.69 116.493 63.85 115.797 63.85ZM117.321 59.974V59.53C117.321 59.01 117.189 58.61 116.925 58.33C116.669 58.05 116.293 57.91 115.797 57.91C115.309 57.91 114.933 58.05 114.669 58.33C114.405 58.61 114.273 59.01 114.273 59.53V59.878H117.405L117.321 59.974ZM122.908 63.85C122.252 63.85 121.72 63.63 121.312 63.19C120.912 62.75 120.712 62.154 120.712 61.402V59.47C120.712 58.71 120.912 58.11 121.312 57.67C121.712 57.23 122.244 57.01 122.908 57.01C123.452 57.01 123.888 57.158 124.216 57.454C124.544 57.75 124.708 58.146 124.708 58.642L124.492 58.39H124.732L124.708 56.89V54.97H125.788V63.73H124.708V62.47H124.492L124.708 62.218C124.708 62.722 124.544 63.122 124.216 63.418C123.888 63.706 123.452 63.85 122.908 63.85ZM123.268 62.914C123.716 62.914 124.068 62.774 124.324 62.494C124.58 62.214 124.708 61.826 124.708 61.33V59.53C124.708 59.034 124.58 58.646 124.324 58.366C124.068 58.086 123.716 57.946 123.268 57.946C122.812 57.946 122.452 58.082 122.188 58.354C121.924 58.626 121.792 59.018 121.792 59.53V61.33C121.792 61.842 121.924 62.234 122.188 62.506C122.452 62.778 122.812 62.914 123.268 62.914ZM139.003 63.73C138.435 63.73 137.991 63.578 137.671 63.274C137.359 62.97 137.203 62.542 137.203 61.99V58.114H135.343V57.13H137.203V55.27H138.283V57.13H140.923V58.114H138.283V61.99C138.283 62.494 138.523 62.746 139.003 62.746H140.803V63.73H139.003ZM143.282 63.73V54.97H144.362V57.13V58.39H144.59L144.362 58.642C144.362 58.122 144.518 57.722 144.83 57.442C145.142 57.154 145.574 57.01 146.126 57.01C146.79 57.01 147.318 57.214 147.71 57.622C148.102 58.03 148.298 58.586 148.298 59.29V63.73H147.218V59.41C147.218 58.938 147.09 58.574 146.834 58.318C146.586 58.054 146.246 57.922 145.814 57.922C145.366 57.922 145.01 58.062 144.746 58.342C144.49 58.622 144.362 59.018 144.362 59.53V63.73H143.282ZM153.273 63.85C152.753 63.85 152.297 63.746 151.905 63.538C151.521 63.33 151.221 63.038 151.005 62.662C150.797 62.278 150.693 61.834 150.693 61.33V59.53C150.693 59.018 150.797 58.574 151.005 58.198C151.221 57.822 151.521 57.53 151.905 57.322C152.297 57.114 152.753 57.01 153.273 57.01C153.793 57.01 154.245 57.114 154.629 57.322C155.021 57.53 155.321 57.822 155.529 58.198C155.745 58.574 155.853 59.018 155.853 59.53V60.694H151.749V61.33C151.749 61.85 151.881 62.25 152.145 62.53C152.409 62.802 152.785 62.938 153.273 62.938C153.689 62.938 154.025 62.866 154.281 62.722C154.537 62.57 154.693 62.346 154.749 62.05H155.829C155.757 62.602 155.485 63.042 155.013 63.37C154.549 63.69 153.969 63.85 153.273 63.85ZM154.797 59.974V59.53C154.797 59.01 154.665 58.61 154.401 58.33C154.145 58.05 153.769 57.91 153.273 57.91C152.785 57.91 152.409 58.05 152.145 58.33C151.881 58.61 151.749 59.01 151.749 59.53V59.878H154.881L154.797 59.974ZM168.312 63.85C167.736 63.85 167.24 63.754 166.824 63.562C166.416 63.37 166.1 63.094 165.876 62.734C165.652 62.374 165.536 61.946 165.528 61.45H166.608C166.608 61.89 166.756 62.238 167.052 62.494C167.356 62.75 167.776 62.878 168.312 62.878C168.816 62.878 169.208 62.754 169.488 62.506C169.776 62.258 169.92 61.914 169.92 61.474C169.92 61.122 169.824 60.814 169.632 60.55C169.448 60.286 169.18 60.102 168.828 59.998L167.64 59.626C167.04 59.442 166.576 59.134 166.248 58.702C165.928 58.27 165.768 57.762 165.768 57.178C165.768 56.706 165.872 56.298 166.08 55.954C166.296 55.602 166.596 55.33 166.98 55.138C167.364 54.938 167.816 54.838 168.336 54.838C169.104 54.838 169.72 55.054 170.184 55.486C170.648 55.91 170.884 56.478 170.892 57.19H169.812C169.812 56.758 169.68 56.422 169.416 56.182C169.16 55.934 168.796 55.81 168.324 55.81C167.86 55.81 167.496 55.922 167.232 56.146C166.976 56.37 166.848 56.682 166.848 57.082C166.848 57.442 166.944 57.754 167.136 58.018C167.328 58.282 167.604 58.47 167.964 58.582L169.164 58.966C169.748 59.15 170.2 59.462 170.52 59.902C170.84 60.342 171 60.858 171 61.45C171 61.93 170.888 62.35 170.664 62.71C170.44 63.07 170.124 63.35 169.716 63.55C169.316 63.75 168.848 63.85 168.312 63.85ZM176.659 63.73C176.275 63.73 175.939 63.654 175.651 63.502C175.363 63.35 175.139 63.134 174.979 62.854C174.819 62.574 174.739 62.246 174.739 61.87V55.954H172.519V54.97H175.819V61.87C175.819 62.142 175.895 62.358 176.047 62.518C176.199 62.67 176.403 62.746 176.659 62.746H178.759V63.73H176.659ZM182.679 63.85C181.983 63.85 181.435 63.674 181.035 63.322C180.635 62.962 180.435 62.478 180.435 61.87C180.435 61.254 180.635 60.77 181.035 60.418C181.435 60.066 181.975 59.89 182.655 59.89H184.695V59.23C184.695 58.822 184.571 58.51 184.323 58.294C184.083 58.07 183.739 57.958 183.291 57.958C182.899 57.958 182.571 58.042 182.307 58.21C182.043 58.37 181.891 58.59 181.851 58.87H180.771C180.843 58.302 181.111 57.85 181.575 57.514C182.039 57.178 182.619 57.01 183.315 57.01C184.075 57.01 184.675 57.206 185.115 57.598C185.555 57.99 185.775 58.522 185.775 59.194V63.73H184.719V62.47H184.539L184.719 62.29C184.719 62.77 184.531 63.15 184.155 63.43C183.787 63.71 183.295 63.85 182.679 63.85ZM182.943 62.998C183.455 62.998 183.875 62.87 184.203 62.614C184.531 62.358 184.695 62.03 184.695 61.63V60.694H182.679C182.319 60.694 182.035 60.794 181.827 60.994C181.619 61.194 181.515 61.466 181.515 61.81C181.515 62.178 181.639 62.47 181.887 62.686C182.143 62.894 182.495 62.998 182.943 62.998ZM190.798 63.85C190.27 63.85 189.806 63.75 189.406 63.55C189.014 63.35 188.71 63.062 188.494 62.686C188.278 62.302 188.17 61.85 188.17 61.33V59.53C188.17 59.002 188.278 58.55 188.494 58.174C188.71 57.798 189.014 57.51 189.406 57.31C189.806 57.11 190.27 57.01 190.798 57.01C191.558 57.01 192.17 57.214 192.634 57.622C193.098 58.03 193.342 58.586 193.366 59.29H192.286C192.262 58.866 192.118 58.542 191.854 58.318C191.598 58.086 191.246 57.97 190.798 57.97C190.326 57.97 189.95 58.106 189.67 58.378C189.39 58.642 189.25 59.022 189.25 59.518V61.33C189.25 61.826 189.39 62.21 189.67 62.482C189.95 62.754 190.326 62.89 190.798 62.89C191.246 62.89 191.598 62.774 191.854 62.542C192.118 62.31 192.262 61.986 192.286 61.57H193.366C193.342 62.274 193.098 62.83 192.634 63.238C192.17 63.646 191.558 63.85 190.798 63.85ZM195.785 63.73V54.97H196.865V59.854H198.137L200.057 57.13H201.293L199.073 60.274L201.329 63.73H200.069L198.149 60.79H196.865V63.73H195.785ZM213.284 63.85C212.708 63.85 212.212 63.754 211.796 63.562C211.388 63.37 211.072 63.094 210.848 62.734C210.624 62.374 210.508 61.946 210.5 61.45H211.58C211.58 61.89 211.728 62.238 212.024 62.494C212.328 62.75 212.748 62.878 213.284 62.878C213.788 62.878 214.18 62.754 214.46 62.506C214.748 62.258 214.892 61.914 214.892 61.474C214.892 61.122 214.796 60.814 214.604 60.55C214.42 60.286 214.152 60.102 213.8 59.998L212.612 59.626C212.012 59.442 211.548 59.134 211.22 58.702C210.9 58.27 210.74 57.762 210.74 57.178C210.74 56.706 210.844 56.298 211.052 55.954C211.268 55.602 211.568 55.33 211.952 55.138C212.336 54.938 212.788 54.838 213.308 54.838C214.076 54.838 214.692 55.054 215.156 55.486C215.62 55.91 215.856 56.478 215.864 57.19H214.784C214.784 56.758 214.652 56.422 214.388 56.182C214.132 55.934 213.768 55.81 213.296 55.81C212.832 55.81 212.468 55.922 212.204 56.146C211.948 56.37 211.82 56.682 211.82 57.082C211.82 57.442 211.916 57.754 212.108 58.018C212.3 58.282 212.576 58.47 212.936 58.582L214.136 58.966C214.72 59.15 215.172 59.462 215.492 59.902C215.812 60.342 215.972 60.858 215.972 61.45C215.972 61.93 215.86 62.35 215.636 62.71C215.412 63.07 215.096 63.35 214.688 63.55C214.288 63.75 213.82 63.85 213.284 63.85ZM221.451 63.73C220.883 63.73 220.439 63.578 220.119 63.274C219.807 62.97 219.651 62.542 219.651 61.99V58.114H217.791V57.13H219.651V55.27H220.731V57.13H223.371V58.114H220.731V61.99C220.731 62.494 220.971 62.746 221.451 62.746H223.251V63.73H221.451ZM227.651 63.85C226.955 63.85 226.407 63.674 226.007 63.322C225.607 62.962 225.407 62.478 225.407 61.87C225.407 61.254 225.607 60.77 226.007 60.418C226.407 60.066 226.947 59.89 227.627 59.89H229.667V59.23C229.667 58.822 229.543 58.51 229.295 58.294C229.055 58.07 228.711 57.958 228.263 57.958C227.871 57.958 227.543 58.042 227.279 58.21C227.015 58.37 226.863 58.59 226.823 58.87H225.743C225.815 58.302 226.083 57.85 226.547 57.514C227.011 57.178 227.591 57.01 228.287 57.01C229.047 57.01 229.647 57.206 230.087 57.598C230.527 57.99 230.747 58.522 230.747 59.194V63.73H229.691V62.47H229.511L229.691 62.29C229.691 62.77 229.503 63.15 229.127 63.43C228.759 63.71 228.267 63.85 227.651 63.85ZM227.915 62.998C228.427 62.998 228.847 62.87 229.175 62.614C229.503 62.358 229.667 62.03 229.667 61.63V60.694H227.651C227.291 60.694 227.007 60.794 226.799 60.994C226.591 61.194 226.487 61.466 226.487 61.81C226.487 62.178 226.611 62.47 226.859 62.686C227.115 62.894 227.467 62.998 227.915 62.998ZM236.442 63.73C235.874 63.73 235.43 63.578 235.11 63.274C234.798 62.97 234.642 62.542 234.642 61.99V58.114H232.782V57.13H234.642V55.27H235.722V57.13H238.362V58.114H235.722V61.99C235.722 62.494 235.962 62.746 236.442 62.746H238.242V63.73H236.442ZM243.205 63.85C242.445 63.85 241.837 63.626 241.381 63.178C240.925 62.722 240.697 62.106 240.697 61.33V57.13H241.777V61.33C241.777 61.826 241.905 62.214 242.161 62.494C242.417 62.766 242.765 62.902 243.205 62.902C243.653 62.902 244.005 62.766 244.261 62.494C244.525 62.214 244.657 61.826 244.657 61.33V57.13H245.737V61.33C245.737 62.106 245.505 62.722 245.041 63.178C244.577 63.626 243.965 63.85 243.205 63.85ZM250.509 63.826C250.061 63.826 249.669 63.758 249.333 63.622C249.005 63.478 248.741 63.278 248.541 63.022C248.349 62.766 248.233 62.462 248.193 62.11H249.273C249.321 62.342 249.449 62.526 249.657 62.662C249.873 62.798 250.157 62.866 250.509 62.866H251.013C251.437 62.866 251.753 62.782 251.961 62.614C252.169 62.438 252.273 62.206 252.273 61.918C252.273 61.638 252.177 61.418 251.985 61.258C251.801 61.09 251.525 60.978 251.157 60.922L250.269 60.778C249.621 60.666 249.137 60.466 248.817 60.178C248.505 59.882 248.349 59.454 248.349 58.894C248.349 58.302 248.537 57.846 248.913 57.526C249.289 57.198 249.853 57.034 250.605 57.034H251.061C251.693 57.034 252.201 57.182 252.585 57.478C252.969 57.774 253.201 58.174 253.281 58.678H252.201C252.153 58.47 252.033 58.306 251.841 58.186C251.649 58.058 251.389 57.994 251.061 57.994H250.605C250.197 57.994 249.897 58.07 249.705 58.222C249.521 58.374 249.429 58.602 249.429 58.906C249.429 59.178 249.509 59.378 249.669 59.506C249.829 59.634 250.081 59.726 250.425 59.782L251.313 59.926C252.025 60.038 252.541 60.246 252.861 60.55C253.189 60.854 253.353 61.294 253.353 61.87C253.353 62.478 253.157 62.958 252.765 63.31C252.381 63.654 251.797 63.826 251.013 63.826H250.509ZM265.703 63.85C265.183 63.85 264.727 63.746 264.335 63.538C263.951 63.33 263.651 63.038 263.435 62.662C263.227 62.278 263.123 61.834 263.123 61.33V59.53C263.123 59.018 263.227 58.574 263.435 58.198C263.651 57.822 263.951 57.53 264.335 57.322C264.727 57.114 265.183 57.01 265.703 57.01C266.223 57.01 266.675 57.114 267.059 57.322C267.451 57.53 267.751 57.822 267.959 58.198C268.175 58.574 268.283 59.018 268.283 59.53V60.694H264.179V61.33C264.179 61.85 264.311 62.25 264.575 62.53C264.839 62.802 265.215 62.938 265.703 62.938C266.119 62.938 266.455 62.866 266.711 62.722C266.967 62.57 267.123 62.346 267.179 62.05H268.259C268.187 62.602 267.915 63.042 267.443 63.37C266.979 63.69 266.399 63.85 265.703 63.85ZM267.227 59.974V59.53C267.227 59.01 267.095 58.61 266.831 58.33C266.575 58.05 266.199 57.91 265.703 57.91C265.215 57.91 264.839 58.05 264.575 58.33C264.311 58.61 264.179 59.01 264.179 59.53V59.878H267.311L267.227 59.974ZM270.198 63.73L272.538 60.334L270.342 57.13H271.614L272.922 59.17C272.978 59.258 273.03 59.354 273.078 59.458C273.134 59.562 273.178 59.646 273.21 59.71C273.234 59.646 273.27 59.562 273.318 59.458C273.374 59.354 273.43 59.258 273.486 59.17L274.806 57.13H276.066L273.87 60.346L276.198 63.73H274.926L273.51 61.57C273.454 61.482 273.398 61.382 273.342 61.27C273.294 61.15 273.25 61.054 273.21 60.982C273.178 61.054 273.13 61.15 273.066 61.27C273.01 61.382 272.95 61.482 272.886 61.57L271.458 63.73H270.198ZM281.414 63.73C280.846 63.73 280.402 63.578 280.082 63.274C279.77 62.97 279.614 62.542 279.614 61.99V58.114H277.754V57.13H279.614V55.27H280.694V57.13H283.334V58.114H280.694V61.99C280.694 62.494 280.934 62.746 281.414 62.746H283.214V63.73H281.414ZM288.189 63.85C287.669 63.85 287.213 63.746 286.821 63.538C286.437 63.33 286.137 63.038 285.921 62.662C285.713 62.278 285.609 61.834 285.609 61.33V59.53C285.609 59.018 285.713 58.574 285.921 58.198C286.137 57.822 286.437 57.53 286.821 57.322C287.213 57.114 287.669 57.01 288.189 57.01C288.709 57.01 289.161 57.114 289.545 57.322C289.937 57.53 290.237 57.822 290.445 58.198C290.661 58.574 290.769 59.018 290.769 59.53V60.694H286.665V61.33C286.665 61.85 286.797 62.25 287.061 62.53C287.325 62.802 287.701 62.938 288.189 62.938C288.605 62.938 288.941 62.866 289.197 62.722C289.453 62.57 289.609 62.346 289.665 62.05H290.745C290.673 62.602 290.401 63.042 289.929 63.37C289.465 63.69 288.885 63.85 288.189 63.85ZM289.713 59.974V59.53C289.713 59.01 289.581 58.61 289.317 58.33C289.061 58.05 288.685 57.91 288.189 57.91C287.701 57.91 287.325 58.05 287.061 58.33C286.797 58.61 286.665 59.01 286.665 59.53V59.878H289.797L289.713 59.974ZM293.188 63.73V57.13H294.268V58.39H294.496L294.268 58.642C294.268 58.122 294.424 57.722 294.736 57.442C295.048 57.154 295.48 57.01 296.032 57.01C296.696 57.01 297.224 57.214 297.616 57.622C298.008 58.03 298.204 58.586 298.204 59.29V63.73H297.124V59.41C297.124 58.938 296.996 58.578 296.74 58.33C296.492 58.074 296.152 57.946 295.72 57.946C295.272 57.946 294.916 58.082 294.652 58.354C294.396 58.626 294.268 59.018 294.268 59.53V63.73H293.188ZM302.976 63.826C302.528 63.826 302.136 63.758 301.8 63.622C301.472 63.478 301.208 63.278 301.008 63.022C300.816 62.766 300.7 62.462 300.66 62.11H301.74C301.788 62.342 301.916 62.526 302.124 62.662C302.34 62.798 302.624 62.866 302.976 62.866H303.48C303.904 62.866 304.22 62.782 304.428 62.614C304.636 62.438 304.74 62.206 304.74 61.918C304.74 61.638 304.644 61.418 304.452 61.258C304.268 61.09 303.992 60.978 303.624 60.922L302.736 60.778C302.088 60.666 301.604 60.466 301.284 60.178C300.972 59.882 300.816 59.454 300.816 58.894C300.816 58.302 301.004 57.846 301.38 57.526C301.756 57.198 302.32 57.034 303.072 57.034H303.528C304.16 57.034 304.668 57.182 305.052 57.478C305.436 57.774 305.668 58.174 305.748 58.678H304.668C304.62 58.47 304.5 58.306 304.308 58.186C304.116 58.058 303.856 57.994 303.528 57.994H303.072C302.664 57.994 302.364 58.07 302.172 58.222C301.988 58.374 301.896 58.602 301.896 58.906C301.896 59.178 301.976 59.378 302.136 59.506C302.296 59.634 302.548 59.726 302.892 59.782L303.78 59.926C304.492 60.038 305.008 60.246 305.328 60.55C305.656 60.854 305.82 61.294 305.82 61.87C305.82 62.478 305.624 62.958 305.232 63.31C304.848 63.654 304.264 63.826 303.48 63.826H302.976ZM308.095 63.73V62.746H310.435V58.114H308.395V57.13H311.515V62.746H313.735V63.73H308.095ZM310.855 55.942C310.591 55.942 310.383 55.874 310.231 55.738C310.079 55.602 310.003 55.418 310.003 55.186C310.003 54.946 310.079 54.758 310.231 54.622C310.383 54.478 310.591 54.406 310.855 54.406C311.119 54.406 311.327 54.478 311.479 54.622C311.631 54.758 311.707 54.946 311.707 55.186C311.707 55.418 311.631 55.602 311.479 55.738C311.327 55.874 311.119 55.942 310.855 55.942ZM318.17 63.826C317.642 63.826 317.186 63.726 316.802 63.526C316.418 63.326 316.118 63.038 315.902 62.662C315.694 62.278 315.59 61.826 315.59 61.306V59.554C315.59 59.026 315.694 58.574 315.902 58.198C316.118 57.822 316.418 57.534 316.802 57.334C317.186 57.134 317.642 57.034 318.17 57.034C318.698 57.034 319.154 57.134 319.538 57.334C319.922 57.534 320.218 57.822 320.426 58.198C320.642 58.574 320.75 59.022 320.75 59.542V61.306C320.75 61.826 320.642 62.278 320.426 62.662C320.218 63.038 319.922 63.326 319.538 63.526C319.154 63.726 318.698 63.826 318.17 63.826ZM318.17 62.866C318.642 62.866 319.01 62.734 319.274 62.47C319.538 62.206 319.67 61.818 319.67 61.306V59.554C319.67 59.042 319.538 58.654 319.274 58.39C319.01 58.126 318.642 57.994 318.17 57.994C317.706 57.994 317.338 58.126 317.066 58.39C316.802 58.654 316.67 59.042 316.67 59.554V61.306C316.67 61.818 316.802 62.206 317.066 62.47C317.338 62.734 317.706 62.866 318.17 62.866ZM323.17 63.73V57.13H324.25V58.39H324.478L324.25 58.642C324.25 58.122 324.406 57.722 324.718 57.442C325.03 57.154 325.462 57.01 326.014 57.01C326.678 57.01 327.206 57.214 327.598 57.622C327.99 58.03 328.186 58.586 328.186 59.29V63.73H327.106V59.41C327.106 58.938 326.978 58.578 326.722 58.33C326.474 58.074 326.134 57.946 325.702 57.946C325.254 57.946 324.898 58.082 324.634 58.354C324.378 58.626 324.25 59.018 324.25 59.53V63.73H323.17Z" fill="white" fill-opacity="0.8"/>
<mask id="path-17-inside-2_101_305" fill="white">
<path d="M7.39001 76.73H9.39001V120.73H7.39001V76.73Z"/>
</mask>
<path d="M6.39001 76.73V80.03H8.39001V76.73H6.39001ZM6.39001 84.43V91.03H8.39001V84.43H6.39001ZM6.39001 95.43V102.03H8.39001V95.43H6.39001ZM6.39001 106.43V113.03H8.39001V106.43H6.39001ZM6.39001 117.43V120.73H8.39001V117.43H6.39001ZM5.39001 76.73V80.03H9.39001V76.73H5.39001ZM5.39001 84.43V91.03H9.39001V84.43H5.39001ZM5.39001 95.43V102.03H9.39001V95.43H5.39001ZM5.39001 106.43V113.03H9.39001V106.43H5.39001ZM5.39001 117.43V120.73H9.39001V117.43H5.39001Z" fill="white" fill-opacity="0.2" mask="url(#path-17-inside-2_101_305)"/>
<g clip-path="url(#clip3_101_305)">
<path d="M2.89001 212.23C3.99458 212.23 4.89001 211.335 4.89001 210.23C4.89001 209.125 3.99458 208.23 2.89001 208.23C1.78545 208.23 0.890015 209.125 0.890015 210.23C0.890015 211.335 1.78545 212.23 2.89001 212.23Z" stroke="#59D499"/>
<path d="M2.89001 223.23C3.99458 223.23 4.89001 222.335 4.89001 221.23C4.89001 220.125 3.99458 219.23 2.89001 219.23C1.78545 219.23 0.890015 220.125 0.890015 221.23C0.890015 222.335 1.78545 223.23 2.89001 223.23Z" stroke="#59D499"/>
<path d="M11.89 223.23C12.9946 223.23 13.89 222.335 13.89 221.23C13.89 220.125 12.9946 219.23 11.89 219.23C10.7854 219.23 9.89001 220.125 9.89001 221.23C9.89001 222.335 10.7854 223.23 11.89 223.23Z" stroke="#59D499"/>
<path d="M2.89001 219.73V211.73" stroke="#59D499"/>
<path d="M12.39 219.73V212.23H11.39V219.73H12.39ZM9.89001 209.73H8.39001V210.73H9.89001V209.73ZM12.39 212.23C12.39 211.902 12.3254 211.577 12.1997 211.273C12.0741 210.97 11.8899 210.694 11.6578 210.462C11.4256 210.23 11.15 210.046 10.8467 209.92C10.5434 209.795 10.2183 209.73 9.89001 209.73V210.73C10.2878 210.73 10.6694 210.888 10.9507 211.169C11.232 211.451 11.39 211.832 11.39 212.23H12.39Z" fill="#59D499"/>
<path d="M9.39001 212.73V207.73L6.39001 210.23L9.39001 212.73Z" fill="#59D499"/>
</g>
<rect x="31.39" y="200.73" width="311.02" height="30" rx="15" fill="white" fill-opacity="0.05"/>
<rect x="31.89" y="201.23" width="310.02" height="29" rx="14.5" stroke="white" stroke-opacity="0.1"/>
<path d="M48.3871 141.85C47.8111 141.85 47.3151 141.754 46.8991 141.562C46.4911 141.37 46.1751 141.094 45.9511 140.734C45.7271 140.374 45.6111 139.946 45.6031 139.45H46.6831C46.6831 139.89 46.8311 140.238 47.1271 140.494C47.4311 140.75 47.8511 140.878 48.3871 140.878C48.8911 140.878 49.2831 140.754 49.5631 140.506C49.8511 140.258 49.9951 139.914 49.9951 139.474C49.9951 139.122 49.8991 138.814 49.7071 138.55C49.5231 138.286 49.2551 138.102 48.9031 137.998L47.7151 137.626C47.1151 137.442 46.6511 137.134 46.3231 136.702C46.0031 136.27 45.8431 135.762 45.8431 135.178C45.8431 134.706 45.9471 134.298 46.1551 133.954C46.3711 133.602 46.6711 133.33 47.0551 133.138C47.4391 132.938 47.8911 132.838 48.4111 132.838C49.1791 132.838 49.7951 133.054 50.2591 133.486C50.7231 133.91 50.9591 134.478 50.9671 135.19H49.8871C49.8871 134.758 49.7551 134.422 49.4911 134.182C49.2351 133.934 48.8711 133.81 48.3991 133.81C47.9351 133.81 47.5711 133.922 47.3071 134.146C47.0511 134.37 46.9231 134.682 46.9231 135.082C46.9231 135.442 47.0191 135.754 47.2111 136.018C47.4031 136.282 47.6791 136.47 48.0391 136.582L49.2391 136.966C49.8231 137.15 50.2751 137.462 50.5951 137.902C50.9151 138.342 51.0751 138.858 51.0751 139.45C51.0751 139.93 50.9631 140.35 50.7391 140.71C50.5151 141.07 50.1991 141.35 49.7911 141.55C49.3911 141.75 48.9231 141.85 48.3871 141.85ZM55.2584 141.85C54.5624 141.85 54.0144 141.674 53.6144 141.322C53.2144 140.962 53.0144 140.478 53.0144 139.87C53.0144 139.254 53.2144 138.77 53.6144 138.418C54.0144 138.066 54.5544 137.89 55.2344 137.89H57.2744V137.23C57.2744 136.822 57.1504 136.51 56.9024 136.294C56.6624 136.07 56.3184 135.958 55.8704 135.958C55.4784 135.958 55.1504 136.042 54.8864 136.21C54.6224 136.37 54.4704 136.59 54.4304 136.87H53.3504C53.4224 136.302 53.6904 135.85 54.1544 135.514C54.6184 135.178 55.1984 135.01 55.8944 135.01C56.6544 135.01 57.2544 135.206 57.6944 135.598C58.1344 135.99 58.3544 136.522 58.3544 137.194V141.73H57.2984V140.47H57.1184L57.2984 140.29C57.2984 140.77 57.1104 141.15 56.7344 141.43C56.3664 141.71 55.8744 141.85 55.2584 141.85ZM55.5224 140.998C56.0344 140.998 56.4544 140.87 56.7824 140.614C57.1104 140.358 57.2744 140.03 57.2744 139.63V138.694H55.2584C54.8984 138.694 54.6144 138.794 54.4064 138.994C54.1984 139.194 54.0944 139.466 54.0944 139.81C54.0944 140.178 54.2184 140.47 54.4664 140.686C54.7224 140.894 55.0744 140.998 55.5224 140.998ZM60.8337 141.73V135.13H61.9137V136.39H62.1417L61.9137 136.642C61.9137 136.122 62.0697 135.722 62.3817 135.442C62.6937 135.154 63.1257 135.01 63.6777 135.01C64.3417 135.01 64.8697 135.214 65.2617 135.622C65.6537 136.03 65.8497 136.586 65.8497 137.29V141.73H64.7697V137.41C64.7697 136.938 64.6417 136.578 64.3857 136.33C64.1377 136.074 63.7977 135.946 63.3657 135.946C62.9177 135.946 62.5617 136.082 62.2977 136.354C62.0417 136.626 61.9137 137.018 61.9137 137.53V141.73H60.8337ZM70.441 141.85C69.785 141.85 69.253 141.63 68.845 141.19C68.445 140.75 68.245 140.154 68.245 139.402V137.47C68.245 136.71 68.445 136.11 68.845 135.67C69.245 135.23 69.777 135.01 70.441 135.01C70.985 135.01 71.421 135.158 71.749 135.454C72.077 135.75 72.241 136.146 72.241 136.642L72.025 136.39H72.265L72.241 134.89V132.97H73.321V141.73H72.241V140.47H72.025L72.241 140.218C72.241 140.722 72.077 141.122 71.749 141.418C71.421 141.706 70.985 141.85 70.441 141.85ZM70.801 140.914C71.249 140.914 71.601 140.774 71.857 140.494C72.113 140.214 72.241 139.826 72.241 139.33V137.53C72.241 137.034 72.113 136.646 71.857 136.366C71.601 136.086 71.249 135.946 70.801 135.946C70.345 135.946 69.985 136.082 69.721 136.354C69.457 136.626 69.325 137.018 69.325 137.53V139.33C69.325 139.842 69.457 140.234 69.721 140.506C69.985 140.778 70.345 140.914 70.801 140.914ZM76.8563 143.89L77.8283 141.322L75.3803 135.13H76.5803L78.1163 139.21C78.1723 139.346 78.2243 139.51 78.2723 139.702C78.3203 139.886 78.3603 140.042 78.3923 140.17C78.4243 140.042 78.4643 139.886 78.5123 139.702C78.5603 139.51 78.6083 139.346 78.6563 139.21L80.0963 135.13H81.2603L78.0083 143.89H76.8563ZM92.7349 141.85C92.0389 141.85 91.4909 141.674 91.0909 141.322C90.6909 140.962 90.4909 140.478 90.4909 139.87C90.4909 139.254 90.6909 138.77 91.0909 138.418C91.4909 138.066 92.0309 137.89 92.7109 137.89H94.7509V137.23C94.7509 136.822 94.6269 136.51 94.3789 136.294C94.1389 136.07 93.7949 135.958 93.3469 135.958C92.9549 135.958 92.6269 136.042 92.3629 136.21C92.0989 136.37 91.9469 136.59 91.9069 136.87H90.8269C90.8989 136.302 91.1669 135.85 91.6309 135.514C92.0949 135.178 92.6749 135.01 93.3709 135.01C94.1309 135.01 94.7309 135.206 95.1709 135.598C95.6109 135.99 95.8309 136.522 95.8309 137.194V141.73H94.7749V140.47H94.5949L94.7749 140.29C94.7749 140.77 94.5869 141.15 94.2109 141.43C93.8429 141.71 93.3509 141.85 92.7349 141.85ZM92.9989 140.998C93.5109 140.998 93.9309 140.87 94.2589 140.614C94.5869 140.358 94.7509 140.03 94.7509 139.63V138.694H92.7349C92.3749 138.694 92.0909 138.794 91.8829 138.994C91.6749 139.194 91.5709 139.466 91.5709 139.81C91.5709 140.178 91.6949 140.47 91.9429 140.686C92.1989 140.894 92.5509 140.998 92.9989 140.998ZM100.422 141.85C99.7663 141.85 99.2343 141.63 98.8263 141.19C98.4263 140.75 98.2263 140.154 98.2263 139.402V137.47C98.2263 136.71 98.4263 136.11 98.8263 135.67C99.2263 135.23 99.7583 135.01 100.422 135.01C100.966 135.01 101.402 135.158 101.73 135.454C102.058 135.75 102.222 136.146 102.222 136.642L102.006 136.39H102.246L102.222 134.89V132.97H103.302V141.73H102.222V140.47H102.006L102.222 140.218C102.222 140.722 102.058 141.122 101.73 141.418C101.402 141.706 100.966 141.85 100.422 141.85ZM100.782 140.914C101.23 140.914 101.582 140.774 101.838 140.494C102.094 140.214 102.222 139.826 102.222 139.33V137.53C102.222 137.034 102.094 136.646 101.838 136.366C101.582 136.086 101.23 135.946 100.782 135.946C100.326 135.946 99.9663 136.082 99.7023 136.354C99.4383 136.626 99.3063 137.018 99.3063 137.53V139.33C99.3063 139.842 99.4383 140.234 99.7023 140.506C99.9663 140.778 100.326 140.914 100.782 140.914ZM107.918 141.85C107.262 141.85 106.73 141.63 106.322 141.19C105.922 140.75 105.722 140.154 105.722 139.402V137.47C105.722 136.71 105.922 136.11 106.322 135.67C106.722 135.23 107.254 135.01 107.918 135.01C108.462 135.01 108.898 135.158 109.226 135.454C109.554 135.75 109.718 136.146 109.718 136.642L109.502 136.39H109.742L109.718 134.89V132.97H110.798V141.73H109.718V140.47H109.502L109.718 140.218C109.718 140.722 109.554 141.122 109.226 141.418C108.898 141.706 108.462 141.85 107.918 141.85ZM108.278 140.914C108.726 140.914 109.078 140.774 109.334 140.494C109.59 140.214 109.718 139.826 109.718 139.33V137.53C109.718 137.034 109.59 136.646 109.334 136.366C109.078 136.086 108.726 135.946 108.278 135.946C107.822 135.946 107.462 136.082 107.198 136.354C106.934 136.626 106.802 137.018 106.802 137.53V139.33C106.802 139.842 106.934 140.234 107.198 140.506C107.462 140.778 107.822 140.914 108.278 140.914ZM115.797 141.85C115.277 141.85 114.821 141.746 114.429 141.538C114.045 141.33 113.745 141.038 113.529 140.662C113.321 140.278 113.217 139.834 113.217 139.33V137.53C113.217 137.018 113.321 136.574 113.529 136.198C113.745 135.822 114.045 135.53 114.429 135.322C114.821 135.114 115.277 135.01 115.797 135.01C116.317 135.01 116.769 135.114 117.153 135.322C117.545 135.53 117.845 135.822 118.053 136.198C118.269 136.574 118.377 137.018 118.377 137.53V138.694H114.273V139.33C114.273 139.85 114.405 140.25 114.669 140.53C114.933 140.802 115.309 140.938 115.797 140.938C116.213 140.938 116.549 140.866 116.805 140.722C117.061 140.57 117.217 140.346 117.273 140.05H118.353C118.281 140.602 118.009 141.042 117.537 141.37C117.073 141.69 116.493 141.85 115.797 141.85ZM117.321 137.974V137.53C117.321 137.01 117.189 136.61 116.925 136.33C116.669 136.05 116.293 135.91 115.797 135.91C115.309 135.91 114.933 136.05 114.669 136.33C114.405 136.61 114.273 137.01 114.273 137.53V137.878H117.405L117.321 137.974ZM122.908 141.85C122.252 141.85 121.72 141.63 121.312 141.19C120.912 140.75 120.712 140.154 120.712 139.402V137.47C120.712 136.71 120.912 136.11 121.312 135.67C121.712 135.23 122.244 135.01 122.908 135.01C123.452 135.01 123.888 135.158 124.216 135.454C124.544 135.75 124.708 136.146 124.708 136.642L124.492 136.39H124.732L124.708 134.89V132.97H125.788V141.73H124.708V140.47H124.492L124.708 140.218C124.708 140.722 124.544 141.122 124.216 141.418C123.888 141.706 123.452 141.85 122.908 141.85ZM123.268 140.914C123.716 140.914 124.068 140.774 124.324 140.494C124.58 140.214 124.708 139.826 124.708 139.33V137.53C124.708 137.034 124.58 136.646 124.324 136.366C124.068 136.086 123.716 135.946 123.268 135.946C122.812 135.946 122.452 136.082 122.188 136.354C121.924 136.626 121.792 137.018 121.792 137.53V139.33C121.792 139.842 121.924 140.234 122.188 140.506C122.452 140.778 122.812 140.914 123.268 140.914ZM139.003 141.73C138.435 141.73 137.991 141.578 137.671 141.274C137.359 140.97 137.203 140.542 137.203 139.99V136.114H135.343V135.13H137.203V133.27H138.283V135.13H140.923V136.114H138.283V139.99C138.283 140.494 138.523 140.746 139.003 140.746H140.803V141.73H139.003ZM143.282 141.73V132.97H144.362V135.13V136.39H144.59L144.362 136.642C144.362 136.122 144.518 135.722 144.83 135.442C145.142 135.154 145.574 135.01 146.126 135.01C146.79 135.01 147.318 135.214 147.71 135.622C148.102 136.03 148.298 136.586 148.298 137.29V141.73H147.218V137.41C147.218 136.938 147.09 136.574 146.834 136.318C146.586 136.054 146.246 135.922 145.814 135.922C145.366 135.922 145.01 136.062 144.746 136.342C144.49 136.622 144.362 137.018 144.362 137.53V141.73H143.282ZM153.273 141.85C152.753 141.85 152.297 141.746 151.905 141.538C151.521 141.33 151.221 141.038 151.005 140.662C150.797 140.278 150.693 139.834 150.693 139.33V137.53C150.693 137.018 150.797 136.574 151.005 136.198C151.221 135.822 151.521 135.53 151.905 135.322C152.297 135.114 152.753 135.01 153.273 135.01C153.793 135.01 154.245 135.114 154.629 135.322C155.021 135.53 155.321 135.822 155.529 136.198C155.745 136.574 155.853 137.018 155.853 137.53V138.694H151.749V139.33C151.749 139.85 151.881 140.25 152.145 140.53C152.409 140.802 152.785 140.938 153.273 140.938C153.689 140.938 154.025 140.866 154.281 140.722C154.537 140.57 154.693 140.346 154.749 140.05H155.829C155.757 140.602 155.485 141.042 155.013 141.37C154.549 141.69 153.969 141.85 153.273 141.85ZM154.797 137.974V137.53C154.797 137.01 154.665 136.61 154.401 136.33C154.145 136.05 153.769 135.91 153.273 135.91C152.785 135.91 152.409 136.05 152.145 136.33C151.881 136.61 151.749 137.01 151.749 137.53V137.878H154.881L154.797 137.974ZM168.312 141.85C167.736 141.85 167.24 141.754 166.824 141.562C166.416 141.37 166.1 141.094 165.876 140.734C165.652 140.374 165.536 139.946 165.528 139.45H166.608C166.608 139.89 166.756 140.238 167.052 140.494C167.356 140.75 167.776 140.878 168.312 140.878C168.816 140.878 169.208 140.754 169.488 140.506C169.776 140.258 169.92 139.914 169.92 139.474C169.92 139.122 169.824 138.814 169.632 138.55C169.448 138.286 169.18 138.102 168.828 137.998L167.64 137.626C167.04 137.442 166.576 137.134 166.248 136.702C165.928 136.27 165.768 135.762 165.768 135.178C165.768 134.706 165.872 134.298 166.08 133.954C166.296 133.602 166.596 133.33 166.98 133.138C167.364 132.938 167.816 132.838 168.336 132.838C169.104 132.838 169.72 133.054 170.184 133.486C170.648 133.91 170.884 134.478 170.892 135.19H169.812C169.812 134.758 169.68 134.422 169.416 134.182C169.16 133.934 168.796 133.81 168.324 133.81C167.86 133.81 167.496 133.922 167.232 134.146C166.976 134.37 166.848 134.682 166.848 135.082C166.848 135.442 166.944 135.754 167.136 136.018C167.328 136.282 167.604 136.47 167.964 136.582L169.164 136.966C169.748 137.15 170.2 137.462 170.52 137.902C170.84 138.342 171 138.858 171 139.45C171 139.93 170.888 140.35 170.664 140.71C170.44 141.07 170.124 141.35 169.716 141.55C169.316 141.75 168.848 141.85 168.312 141.85ZM176.659 141.73C176.275 141.73 175.939 141.654 175.651 141.502C175.363 141.35 175.139 141.134 174.979 140.854C174.819 140.574 174.739 140.246 174.739 139.87V133.954H172.519V132.97H175.819V139.87C175.819 140.142 175.895 140.358 176.047 140.518C176.199 140.67 176.403 140.746 176.659 140.746H178.759V141.73H176.659ZM182.679 141.85C181.983 141.85 181.435 141.674 181.035 141.322C180.635 140.962 180.435 140.478 180.435 139.87C180.435 139.254 180.635 138.77 181.035 138.418C181.435 138.066 181.975 137.89 182.655 137.89H184.695V137.23C184.695 136.822 184.571 136.51 184.323 136.294C184.083 136.07 183.739 135.958 183.291 135.958C182.899 135.958 182.571 136.042 182.307 136.21C182.043 136.37 181.891 136.59 181.851 136.87H180.771C180.843 136.302 181.111 135.85 181.575 135.514C182.039 135.178 182.619 135.01 183.315 135.01C184.075 135.01 184.675 135.206 185.115 135.598C185.555 135.99 185.775 136.522 185.775 137.194V141.73H184.719V140.47H184.539L184.719 140.29C184.719 140.77 184.531 141.15 184.155 141.43C183.787 141.71 183.295 141.85 182.679 141.85ZM182.943 140.998C183.455 140.998 183.875 140.87 184.203 140.614C184.531 140.358 184.695 140.03 184.695 139.63V138.694H182.679C182.319 138.694 182.035 138.794 181.827 138.994C181.619 139.194 181.515 139.466 181.515 139.81C181.515 140.178 181.639 140.47 181.887 140.686C182.143 140.894 182.495 140.998 182.943 140.998ZM190.798 141.85C190.27 141.85 189.806 141.75 189.406 141.55C189.014 141.35 188.71 141.062 188.494 140.686C188.278 140.302 188.17 139.85 188.17 139.33V137.53C188.17 137.002 188.278 136.55 188.494 136.174C188.71 135.798 189.014 135.51 189.406 135.31C189.806 135.11 190.27 135.01 190.798 135.01C191.558 135.01 192.17 135.214 192.634 135.622C193.098 136.03 193.342 136.586 193.366 137.29H192.286C192.262 136.866 192.118 136.542 191.854 136.318C191.598 136.086 191.246 135.97 190.798 135.97C190.326 135.97 189.95 136.106 189.67 136.378C189.39 136.642 189.25 137.022 189.25 137.518V139.33C189.25 139.826 189.39 140.21 189.67 140.482C189.95 140.754 190.326 140.89 190.798 140.89C191.246 140.89 191.598 140.774 191.854 140.542C192.118 140.31 192.262 139.986 192.286 139.57H193.366C193.342 140.274 193.098 140.83 192.634 141.238C192.17 141.646 191.558 141.85 190.798 141.85ZM195.785 141.73V132.97H196.865V137.854H198.137L200.057 135.13H201.293L199.073 138.274L201.329 141.73H200.069L198.149 138.79H196.865V141.73H195.785ZM213.284 141.85C212.708 141.85 212.212 141.754 211.796 141.562C211.388 141.37 211.072 141.094 210.848 140.734C210.624 140.374 210.508 139.946 210.5 139.45H211.58C211.58 139.89 211.728 140.238 212.024 140.494C212.328 140.75 212.748 140.878 213.284 140.878C213.788 140.878 214.18 140.754 214.46 140.506C214.748 140.258 214.892 139.914 214.892 139.474C214.892 139.122 214.796 138.814 214.604 138.55C214.42 138.286 214.152 138.102 213.8 137.998L212.612 137.626C212.012 137.442 211.548 137.134 211.22 136.702C210.9 136.27 210.74 135.762 210.74 135.178C210.74 134.706 210.844 134.298 211.052 133.954C211.268 133.602 211.568 133.33 211.952 133.138C212.336 132.938 212.788 132.838 213.308 132.838C214.076 132.838 214.692 133.054 215.156 133.486C215.62 133.91 215.856 134.478 215.864 135.19H214.784C214.784 134.758 214.652 134.422 214.388 134.182C214.132 133.934 213.768 133.81 213.296 133.81C212.832 133.81 212.468 133.922 212.204 134.146C211.948 134.37 211.82 134.682 211.82 135.082C211.82 135.442 211.916 135.754 212.108 136.018C212.3 136.282 212.576 136.47 212.936 136.582L214.136 136.966C214.72 137.15 215.172 137.462 215.492 137.902C215.812 138.342 215.972 138.858 215.972 139.45C215.972 139.93 215.86 140.35 215.636 140.71C215.412 141.07 215.096 141.35 214.688 141.55C214.288 141.75 213.82 141.85 213.284 141.85ZM221.451 141.73C220.883 141.73 220.439 141.578 220.119 141.274C219.807 140.97 219.651 140.542 219.651 139.99V136.114H217.791V135.13H219.651V133.27H220.731V135.13H223.371V136.114H220.731V139.99C220.731 140.494 220.971 140.746 221.451 140.746H223.251V141.73H221.451ZM227.651 141.85C226.955 141.85 226.407 141.674 226.007 141.322C225.607 140.962 225.407 140.478 225.407 139.87C225.407 139.254 225.607 138.77 226.007 138.418C226.407 138.066 226.947 137.89 227.627 137.89H229.667V137.23C229.667 136.822 229.543 136.51 229.295 136.294C229.055 136.07 228.711 135.958 228.263 135.958C227.871 135.958 227.543 136.042 227.279 136.21C227.015 136.37 226.863 136.59 226.823 136.87H225.743C225.815 136.302 226.083 135.85 226.547 135.514C227.011 135.178 227.591 135.01 228.287 135.01C229.047 135.01 229.647 135.206 230.087 135.598C230.527 135.99 230.747 136.522 230.747 137.194V141.73H229.691V140.47H229.511L229.691 140.29C229.691 140.77 229.503 141.15 229.127 141.43C228.759 141.71 228.267 141.85 227.651 141.85ZM227.915 140.998C228.427 140.998 228.847 140.87 229.175 140.614C229.503 140.358 229.667 140.03 229.667 139.63V138.694H227.651C227.291 138.694 227.007 138.794 226.799 138.994C226.591 139.194 226.487 139.466 226.487 139.81C226.487 140.178 226.611 140.47 226.859 140.686C227.115 140.894 227.467 140.998 227.915 140.998ZM236.442 141.73C235.874 141.73 235.43 141.578 235.11 141.274C234.798 140.97 234.642 140.542 234.642 139.99V136.114H232.782V135.13H234.642V133.27H235.722V135.13H238.362V136.114H235.722V139.99C235.722 140.494 235.962 140.746 236.442 140.746H238.242V141.73H236.442ZM243.205 141.85C242.445 141.85 241.837 141.626 241.381 141.178C240.925 140.722 240.697 140.106 240.697 139.33V135.13H241.777V139.33C241.777 139.826 241.905 140.214 242.161 140.494C242.417 140.766 242.765 140.902 243.205 140.902C243.653 140.902 244.005 140.766 244.261 140.494C244.525 140.214 244.657 139.826 244.657 139.33V135.13H245.737V139.33C245.737 140.106 245.505 140.722 245.041 141.178C244.577 141.626 243.965 141.85 243.205 141.85ZM250.509 141.826C250.061 141.826 249.669 141.758 249.333 141.622C249.005 141.478 248.741 141.278 248.541 141.022C248.349 140.766 248.233 140.462 248.193 140.11H249.273C249.321 140.342 249.449 140.526 249.657 140.662C249.873 140.798 250.157 140.866 250.509 140.866H251.013C251.437 140.866 251.753 140.782 251.961 140.614C252.169 140.438 252.273 140.206 252.273 139.918C252.273 139.638 252.177 139.418 251.985 139.258C251.801 139.09 251.525 138.978 251.157 138.922L250.269 138.778C249.621 138.666 249.137 138.466 248.817 138.178C248.505 137.882 248.349 137.454 248.349 136.894C248.349 136.302 248.537 135.846 248.913 135.526C249.289 135.198 249.853 135.034 250.605 135.034H251.061C251.693 135.034 252.201 135.182 252.585 135.478C252.969 135.774 253.201 136.174 253.281 136.678H252.201C252.153 136.47 252.033 136.306 251.841 136.186C251.649 136.058 251.389 135.994 251.061 135.994H250.605C250.197 135.994 249.897 136.07 249.705 136.222C249.521 136.374 249.429 136.602 249.429 136.906C249.429 137.178 249.509 137.378 249.669 137.506C249.829 137.634 250.081 137.726 250.425 137.782L251.313 137.926C252.025 138.038 252.541 138.246 252.861 138.55C253.189 138.854 253.353 139.294 253.353 139.87C253.353 140.478 253.157 140.958 252.765 141.31C252.381 141.654 251.797 141.826 251.013 141.826H250.509ZM265.703 141.85C265.183 141.85 264.727 141.746 264.335 141.538C263.951 141.33 263.651 141.038 263.435 140.662C263.227 140.278 263.123 139.834 263.123 139.33V137.53C263.123 137.018 263.227 136.574 263.435 136.198C263.651 135.822 263.951 135.53 264.335 135.322C264.727 135.114 265.183 135.01 265.703 135.01C266.223 135.01 266.675 135.114 267.059 135.322C267.451 135.53 267.751 135.822 267.959 136.198C268.175 136.574 268.283 137.018 268.283 137.53V138.694H264.179V139.33C264.179 139.85 264.311 140.25 264.575 140.53C264.839 140.802 265.215 140.938 265.703 140.938C266.119 140.938 266.455 140.866 266.711 140.722C266.967 140.57 267.123 140.346 267.179 140.05H268.259C268.187 140.602 267.915 141.042 267.443 141.37C266.979 141.69 266.399 141.85 265.703 141.85ZM267.227 137.974V137.53C267.227 137.01 267.095 136.61 266.831 136.33C266.575 136.05 266.199 135.91 265.703 135.91C265.215 135.91 264.839 136.05 264.575 136.33C264.311 136.61 264.179 137.01 264.179 137.53V137.878H267.311L267.227 137.974ZM270.198 141.73L272.538 138.334L270.342 135.13H271.614L272.922 137.17C272.978 137.258 273.03 137.354 273.078 137.458C273.134 137.562 273.178 137.646 273.21 137.71C273.234 137.646 273.27 137.562 273.318 137.458C273.374 137.354 273.43 137.258 273.486 137.17L274.806 135.13H276.066L273.87 138.346L276.198 141.73H274.926L273.51 139.57C273.454 139.482 273.398 139.382 273.342 139.27C273.294 139.15 273.25 139.054 273.21 138.982C273.178 139.054 273.13 139.15 273.066 139.27C273.01 139.382 272.95 139.482 272.886 139.57L271.458 141.73H270.198ZM281.414 141.73C280.846 141.73 280.402 141.578 280.082 141.274C279.77 140.97 279.614 140.542 279.614 139.99V136.114H277.754V135.13H279.614V133.27H280.694V135.13H283.334V136.114H280.694V139.99C280.694 140.494 280.934 140.746 281.414 140.746H283.214V141.73H281.414ZM288.189 141.85C287.669 141.85 287.213 141.746 286.821 141.538C286.437 141.33 286.137 141.038 285.921 140.662C285.713 140.278 285.609 139.834 285.609 139.33V137.53C285.609 137.018 285.713 136.574 285.921 136.198C286.137 135.822 286.437 135.53 286.821 135.322C287.213 135.114 287.669 135.01 288.189 135.01C288.709 135.01 289.161 135.114 289.545 135.322C289.937 135.53 290.237 135.822 290.445 136.198C290.661 136.574 290.769 137.018 290.769 137.53V138.694H286.665V139.33C286.665 139.85 286.797 140.25 287.061 140.53C287.325 140.802 287.701 140.938 288.189 140.938C288.605 140.938 288.941 140.866 289.197 140.722C289.453 140.57 289.609 140.346 289.665 140.05H290.745C290.673 140.602 290.401 141.042 289.929 141.37C289.465 141.69 288.885 141.85 288.189 141.85ZM289.713 137.974V137.53C289.713 137.01 289.581 136.61 289.317 136.33C289.061 136.05 288.685 135.91 288.189 135.91C287.701 135.91 287.325 136.05 287.061 136.33C286.797 136.61 286.665 137.01 286.665 137.53V137.878H289.797L289.713 137.974ZM293.188 141.73V135.13H294.268V136.39H294.496L294.268 136.642C294.268 136.122 294.424 135.722 294.736 135.442C295.048 135.154 295.48 135.01 296.032 135.01C296.696 135.01 297.224 135.214 297.616 135.622C298.008 136.03 298.204 136.586 298.204 137.29V141.73H297.124V137.41C297.124 136.938 296.996 136.578 296.74 136.33C296.492 136.074 296.152 135.946 295.72 135.946C295.272 135.946 294.916 136.082 294.652 136.354C294.396 136.626 294.268 137.018 294.268 137.53V141.73H293.188ZM302.976 141.826C302.528 141.826 302.136 141.758 301.8 141.622C301.472 141.478 301.208 141.278 301.008 141.022C300.816 140.766 300.7 140.462 300.66 140.11H301.74C301.788 140.342 301.916 140.526 302.124 140.662C302.34 140.798 302.624 140.866 302.976 140.866H303.48C303.904 140.866 304.22 140.782 304.428 140.614C304.636 140.438 304.74 140.206 304.74 139.918C304.74 139.638 304.644 139.418 304.452 139.258C304.268 139.09 303.992 138.978 303.624 138.922L302.736 138.778C302.088 138.666 301.604 138.466 301.284 138.178C300.972 137.882 300.816 137.454 300.816 136.894C300.816 136.302 301.004 135.846 301.38 135.526C301.756 135.198 302.32 135.034 303.072 135.034H303.528C304.16 135.034 304.668 135.182 305.052 135.478C305.436 135.774 305.668 136.174 305.748 136.678H304.668C304.62 136.47 304.5 136.306 304.308 136.186C304.116 136.058 303.856 135.994 303.528 135.994H303.072C302.664 135.994 302.364 136.07 302.172 136.222C301.988 136.374 301.896 136.602 301.896 136.906C301.896 137.178 301.976 137.378 302.136 137.506C302.296 137.634 302.548 137.726 302.892 137.782L303.78 137.926C304.492 138.038 305.008 138.246 305.328 138.55C305.656 138.854 305.82 139.294 305.82 139.87C305.82 140.478 305.624 140.958 305.232 141.31C304.848 141.654 304.264 141.826 303.48 141.826H302.976ZM308.095 141.73V140.746H310.435V136.114H308.395V135.13H311.515V140.746H313.735V141.73H308.095ZM310.855 133.942C310.591 133.942 310.383 133.874 310.231 133.738C310.079 133.602 310.003 133.418 310.003 133.186C310.003 132.946 310.079 132.758 310.231 132.622C310.383 132.478 310.591 132.406 310.855 132.406C311.119 132.406 311.327 132.478 311.479 132.622C311.631 132.758 311.707 132.946 311.707 133.186C311.707 133.418 311.631 133.602 311.479 133.738C311.327 133.874 311.119 133.942 310.855 133.942ZM318.17 141.826C317.642 141.826 317.186 141.726 316.802 141.526C316.418 141.326 316.118 141.038 315.902 140.662C315.694 140.278 315.59 139.826 315.59 139.306V137.554C315.59 137.026 315.694 136.574 315.902 136.198C316.118 135.822 316.418 135.534 316.802 135.334C317.186 135.134 317.642 135.034 318.17 135.034C318.698 135.034 319.154 135.134 319.538 135.334C319.922 135.534 320.218 135.822 320.426 136.198C320.642 136.574 320.75 137.022 320.75 137.542V139.306C320.75 139.826 320.642 140.278 320.426 140.662C320.218 141.038 319.922 141.326 319.538 141.526C319.154 141.726 318.698 141.826 318.17 141.826ZM318.17 140.866C318.642 140.866 319.01 140.734 319.274 140.47C319.538 140.206 319.67 139.818 319.67 139.306V137.554C319.67 137.042 319.538 136.654 319.274 136.39C319.01 136.126 318.642 135.994 318.17 135.994C317.706 135.994 317.338 136.126 317.066 136.39C316.802 136.654 316.67 137.042 316.67 137.554V139.306C316.67 139.818 316.802 140.206 317.066 140.47C317.338 140.734 317.706 140.866 318.17 140.866ZM323.17 141.73V135.13H324.25V136.39H324.478L324.25 136.642C324.25 136.122 324.406 135.722 324.718 135.442C325.03 135.154 325.462 135.01 326.014 135.01C326.678 135.01 327.206 135.214 327.598 135.622C327.99 136.03 328.186 136.586 328.186 137.29V141.73H327.106V137.41C327.106 136.938 326.978 136.578 326.722 136.33C326.474 136.074 326.134 135.946 325.702 135.946C325.254 135.946 324.898 136.082 324.634 136.354C324.378 136.626 324.25 137.018 324.25 137.53V141.73H323.17Z" fill="white" fill-opacity="0.8"/>
<mask id="path-28-inside-3_101_305" fill="white">
<path d="M7.39001 154.73H9.39001V198.73H7.39001V154.73Z"/>
</mask>
<path d="M6.39001 154.73V158.03H8.39001V154.73H6.39001ZM6.39001 162.43V169.03H8.39001V162.43H6.39001ZM6.39001 173.43V180.03H8.39001V173.43H6.39001ZM6.39001 184.43V191.03H8.39001V184.43H6.39001ZM6.39001 195.43V198.73H8.39001V195.43H6.39001ZM5.39001 154.73V158.03H9.39001V154.73H5.39001ZM5.39001 162.43V169.03H9.39001V162.43H5.39001ZM5.39001 173.43V180.03H9.39001V173.43H5.39001ZM5.39001 184.43V191.03H9.39001V184.43H5.39001ZM5.39001 195.43V198.73H9.39001V195.43H5.39001Z" fill="white" fill-opacity="0.2" mask="url(#path-28-inside-3_101_305)"/>
<g clip-path="url(#clip4_101_305)">
<path d="M2.89001 290.23C3.99458 290.23 4.89001 289.335 4.89001 288.23C4.89001 287.125 3.99458 286.23 2.89001 286.23C1.78545 286.23 0.890015 287.125 0.890015 288.23C0.890015 289.335 1.78545 290.23 2.89001 290.23Z" stroke="#59D499"/>
<path d="M2.89001 301.23C3.99458 301.23 4.89001 300.335 4.89001 299.23C4.89001 298.125 3.99458 297.23 2.89001 297.23C1.78545 297.23 0.890015 298.125 0.890015 299.23C0.890015 300.335 1.78545 301.23 2.89001 301.23Z" stroke="#59D499"/>
<path d="M11.89 301.23C12.9946 301.23 13.89 300.335 13.89 299.23C13.89 298.125 12.9946 297.23 11.89 297.23C10.7854 297.23 9.89001 298.125 9.89001 299.23C9.89001 300.335 10.7854 301.23 11.89 301.23Z" stroke="#59D499"/>
<path d="M2.89001 297.73V289.73" stroke="#59D499"/>
<path d="M12.39 297.73V290.23H11.39V297.73H12.39ZM9.89001 287.73H8.39001V288.73H9.89001V287.73ZM12.39 290.23C12.39 289.902 12.3254 289.577 12.1997 289.273C12.0741 288.97 11.8899 288.694 11.6578 288.462C11.4256 288.23 11.15 288.046 10.8467 287.92C10.5434 287.795 10.2183 287.73 9.89001 287.73V288.73C10.2878 288.73 10.6694 288.888 10.9507 289.169C11.232 289.451 11.39 289.832 11.39 290.23H12.39Z" fill="#59D499"/>
<path d="M9.39001 290.73V285.73L6.39001 288.23L9.39001 290.73Z" fill="#59D499"/>
</g>
<rect x="31.39" y="278.73" width="281.02" height="30" rx="15" fill="white" fill-opacity="0.05"/>
<rect x="31.89" y="279.23" width="280.02" height="29" rx="14.5" stroke="white" stroke-opacity="0.1"/>
<path d="M48.3777 219.85C47.8017 219.85 47.3057 219.754 46.8897 219.562C46.4817 219.37 46.1657 219.094 45.9417 218.734C45.7177 218.374 45.6017 217.946 45.5937 217.45H46.6737C46.6737 217.89 46.8217 218.238 47.1177 218.494C47.4217 218.75 47.8417 218.878 48.3777 218.878C48.8817 218.878 49.2737 218.754 49.5537 218.506C49.8417 218.258 49.9857 217.914 49.9857 217.474C49.9857 217.122 49.8897 216.814 49.6977 216.55C49.5137 216.286 49.2457 216.102 48.8937 215.998L47.7057 215.626C47.1057 215.442 46.6417 215.134 46.3137 214.702C45.9937 214.27 45.8337 213.762 45.8337 213.178C45.8337 212.706 45.9377 212.298 46.1457 211.954C46.3617 211.602 46.6617 211.33 47.0457 211.138C47.4297 210.938 47.8817 210.838 48.4017 210.838C49.1697 210.838 49.7857 211.054 50.2497 211.486C50.7137 211.91 50.9497 212.478 50.9577 213.19H49.8777C49.8777 212.758 49.7457 212.422 49.4817 212.182C49.2257 211.934 48.8617 211.81 48.3897 211.81C47.9257 211.81 47.5617 211.922 47.2977 212.146C47.0417 212.37 46.9137 212.682 46.9137 213.082C46.9137 213.442 47.0097 213.754 47.2017 214.018C47.3937 214.282 47.6697 214.47 48.0297 214.582L49.2297 214.966C49.8137 215.15 50.2657 215.462 50.5857 215.902C50.9057 216.342 51.0657 216.858 51.0657 217.45C51.0657 217.93 50.9537 218.35 50.7297 218.71C50.5057 219.07 50.1897 219.35 49.7817 219.55C49.3817 219.75 48.9137 219.85 48.3777 219.85ZM56.545 219.73C55.977 219.73 55.533 219.578 55.213 219.274C54.901 218.97 54.745 218.542 54.745 217.99V214.114H52.885V213.13H54.745V211.27H55.825V213.13H58.465V214.114H55.825V217.99C55.825 218.494 56.065 218.746 56.545 218.746H58.345V219.73H56.545ZM63.3083 219.85C62.5483 219.85 61.9403 219.626 61.4843 219.178C61.0283 218.722 60.8003 218.106 60.8003 217.33V213.13H61.8803V217.33C61.8803 217.826 62.0083 218.214 62.2643 218.494C62.5203 218.766 62.8683 218.902 63.3083 218.902C63.7563 218.902 64.1083 218.766 64.3643 218.494C64.6283 218.214 64.7603 217.826 64.7603 217.33V213.13H65.8403V217.33C65.8403 218.106 65.6083 218.722 65.1443 219.178C64.6803 219.626 64.0683 219.85 63.3083 219.85ZM70.2396 219.85C69.5436 219.85 68.9956 219.674 68.5956 219.322C68.1956 218.962 67.9956 218.478 67.9956 217.87C67.9956 217.254 68.1956 216.77 68.5956 216.418C68.9956 216.066 69.5356 215.89 70.2156 215.89H72.2556V215.23C72.2556 214.822 72.1316 214.51 71.8836 214.294C71.6436 214.07 71.2996 213.958 70.8516 213.958C70.4596 213.958 70.1316 214.042 69.8676 214.21C69.6036 214.37 69.4516 214.59 69.4116 214.87H68.3316C68.4036 214.302 68.6716 213.85 69.1356 213.514C69.5996 213.178 70.1796 213.01 70.8756 213.01C71.6356 213.01 72.2356 213.206 72.6756 213.598C73.1156 213.99 73.3356 214.522 73.3356 215.194V219.73H72.2796V218.47H72.0996L72.2796 218.29C72.2796 218.77 72.0916 219.15 71.7156 219.43C71.3476 219.71 70.8556 219.85 70.2396 219.85ZM70.5036 218.998C71.0156 218.998 71.4356 218.87 71.7636 218.614C72.0916 218.358 72.2556 218.03 72.2556 217.63V216.694H70.2396C69.8796 216.694 69.5956 216.794 69.3876 216.994C69.1796 217.194 69.0756 217.466 69.0756 217.81C69.0756 218.178 69.1996 218.47 69.4476 218.686C69.7036 218.894 70.0556 218.998 70.5036 218.998ZM76.043 219.73V213.13H77.099V214.39H77.351L77.003 215.17C77.003 214.458 77.155 213.922 77.459 213.562C77.771 213.194 78.231 213.01 78.839 213.01C79.535 213.01 80.087 213.23 80.495 213.67C80.911 214.102 81.119 214.69 81.119 215.434V215.83H80.039V215.53C80.039 215.01 79.911 214.614 79.655 214.342C79.407 214.062 79.051 213.922 78.587 213.922C78.131 213.922 77.771 214.062 77.507 214.342C77.251 214.622 77.123 215.018 77.123 215.53V219.73H76.043ZM86.5263 219.73C85.9583 219.73 85.5143 219.578 85.1943 219.274C84.8823 218.97 84.7263 218.542 84.7263 217.99V214.114H82.8663V213.13H84.7263V211.27H85.8063V213.13H88.4463V214.114H85.8063V217.99C85.8063 218.494 86.0463 218.746 86.5263 218.746H88.3263V219.73H86.5263ZM100.221 219.85C99.5249 219.85 98.9769 219.674 98.5769 219.322C98.1769 218.962 97.9769 218.478 97.9769 217.87C97.9769 217.254 98.1769 216.77 98.5769 216.418C98.9769 216.066 99.5169 215.89 100.197 215.89H102.237V215.23C102.237 214.822 102.113 214.51 101.865 214.294C101.625 214.07 101.281 213.958 100.833 213.958C100.441 213.958 100.113 214.042 99.8489 214.21C99.5849 214.37 99.4329 214.59 99.3929 214.87H98.3129C98.3849 214.302 98.6529 213.85 99.1169 213.514C99.5809 213.178 100.161 213.01 100.857 213.01C101.617 213.01 102.217 213.206 102.657 213.598C103.097 213.99 103.317 214.522 103.317 215.194V219.73H102.261V218.47H102.081L102.261 218.29C102.261 218.77 102.073 219.15 101.697 219.43C101.329 219.71 100.837 219.85 100.221 219.85ZM100.485 218.998C100.997 218.998 101.417 218.87 101.745 218.614C102.073 218.358 102.237 218.03 102.237 217.63V216.694H100.221C99.8609 216.694 99.5769 216.794 99.3689 216.994C99.1609 217.194 99.0569 217.466 99.0569 217.81C99.0569 218.178 99.1809 218.47 99.4289 218.686C99.6849 218.894 100.037 218.998 100.485 218.998ZM107.908 219.85C107.252 219.85 106.72 219.63 106.312 219.19C105.912 218.75 105.712 218.154 105.712 217.402V215.47C105.712 214.71 105.912 214.11 106.312 213.67C106.712 213.23 107.244 213.01 107.908 213.01C108.452 213.01 108.888 213.158 109.216 213.454C109.544 213.75 109.708 214.146 109.708 214.642L109.492 214.39H109.732L109.708 212.89V210.97H110.788V219.73H109.708V218.47H109.492L109.708 218.218C109.708 218.722 109.544 219.122 109.216 219.418C108.888 219.706 108.452 219.85 107.908 219.85ZM108.268 218.914C108.716 218.914 109.068 218.774 109.324 218.494C109.58 218.214 109.708 217.826 109.708 217.33V215.53C109.708 215.034 109.58 214.646 109.324 214.366C109.068 214.086 108.716 213.946 108.268 213.946C107.812 213.946 107.452 214.082 107.188 214.354C106.924 214.626 106.792 215.018 106.792 215.53V217.33C106.792 217.842 106.924 218.234 107.188 218.506C107.452 218.778 107.812 218.914 108.268 218.914ZM115.404 219.85C114.748 219.85 114.216 219.63 113.808 219.19C113.408 218.75 113.208 218.154 113.208 217.402V215.47C113.208 214.71 113.408 214.11 113.808 213.67C114.208 213.23 114.74 213.01 115.404 213.01C115.948 213.01 116.384 213.158 116.712 213.454C117.04 213.75 117.204 214.146 117.204 214.642L116.988 214.39H117.228L117.204 212.89V210.97H118.284V219.73H117.204V218.47H116.988L117.204 218.218C117.204 218.722 117.04 219.122 116.712 219.418C116.384 219.706 115.948 219.85 115.404 219.85ZM115.764 218.914C116.212 218.914 116.564 218.774 116.82 218.494C117.076 218.214 117.204 217.826 117.204 217.33V215.53C117.204 215.034 117.076 214.646 116.82 214.366C116.564 214.086 116.212 213.946 115.764 213.946C115.308 213.946 114.948 214.082 114.684 214.354C114.42 214.626 114.288 215.018 114.288 215.53V217.33C114.288 217.842 114.42 218.234 114.684 218.506C114.948 218.778 115.308 218.914 115.764 218.914ZM123.283 219.85C122.763 219.85 122.307 219.746 121.915 219.538C121.531 219.33 121.231 219.038 121.015 218.662C120.807 218.278 120.703 217.834 120.703 217.33V215.53C120.703 215.018 120.807 214.574 121.015 214.198C121.231 213.822 121.531 213.53 121.915 213.322C122.307 213.114 122.763 213.01 123.283 213.01C123.803 213.01 124.255 213.114 124.639 213.322C125.031 213.53 125.331 213.822 125.539 214.198C125.755 214.574 125.863 215.018 125.863 215.53V216.694H121.759V217.33C121.759 217.85 121.891 218.25 122.155 218.53C122.419 218.802 122.795 218.938 123.283 218.938C123.699 218.938 124.035 218.866 124.291 218.722C124.547 218.57 124.703 218.346 124.759 218.05H125.839C125.767 218.602 125.495 219.042 125.023 219.37C124.559 219.69 123.979 219.85 123.283 219.85ZM124.807 215.974V215.53C124.807 215.01 124.675 214.61 124.411 214.33C124.155 214.05 123.779 213.91 123.283 213.91C122.795 213.91 122.419 214.05 122.155 214.33C121.891 214.61 121.759 215.01 121.759 215.53V215.878H124.891L124.807 215.974ZM130.394 219.85C129.738 219.85 129.206 219.63 128.798 219.19C128.398 218.75 128.198 218.154 128.198 217.402V215.47C128.198 214.71 128.398 214.11 128.798 213.67C129.198 213.23 129.73 213.01 130.394 213.01C130.938 213.01 131.374 213.158 131.702 213.454C132.03 213.75 132.194 214.146 132.194 214.642L131.978 214.39H132.218L132.194 212.89V210.97H133.274V219.73H132.194V218.47H131.978L132.194 218.218C132.194 218.722 132.03 219.122 131.702 219.418C131.374 219.706 130.938 219.85 130.394 219.85ZM130.754 218.914C131.202 218.914 131.554 218.774 131.81 218.494C132.066 218.214 132.194 217.826 132.194 217.33V215.53C132.194 215.034 132.066 214.646 131.81 214.366C131.554 214.086 131.202 213.946 130.754 213.946C130.298 213.946 129.938 214.082 129.674 214.354C129.41 214.626 129.278 215.018 129.278 215.53V217.33C129.278 217.842 129.41 218.234 129.674 218.506C129.938 218.778 130.298 218.914 130.754 218.914ZM146.489 219.73C145.921 219.73 145.477 219.578 145.157 219.274C144.845 218.97 144.689 218.542 144.689 217.99V214.114H142.829V213.13H144.689V211.27H145.769V213.13H148.409V214.114H145.769V217.99C145.769 218.494 146.009 218.746 146.489 218.746H148.289V219.73H146.489ZM150.768 219.73V210.97H151.848V213.13V214.39H152.076L151.848 214.642C151.848 214.122 152.004 213.722 152.316 213.442C152.628 213.154 153.06 213.01 153.612 213.01C154.276 213.01 154.804 213.214 155.196 213.622C155.588 214.03 155.784 214.586 155.784 215.29V219.73H154.704V215.41C154.704 214.938 154.576 214.574 154.32 214.318C154.072 214.054 153.732 213.922 153.3 213.922C152.852 213.922 152.496 214.062 152.232 214.342C151.976 214.622 151.848 215.018 151.848 215.53V219.73H150.768ZM160.759 219.85C160.239 219.85 159.783 219.746 159.391 219.538C159.007 219.33 158.707 219.038 158.491 218.662C158.283 218.278 158.179 217.834 158.179 217.33V215.53C158.179 215.018 158.283 214.574 158.491 214.198C158.707 213.822 159.007 213.53 159.391 213.322C159.783 213.114 160.239 213.01 160.759 213.01C161.279 213.01 161.731 213.114 162.115 213.322C162.507 213.53 162.807 213.822 163.015 214.198C163.231 214.574 163.339 215.018 163.339 215.53V216.694H159.235V217.33C159.235 217.85 159.367 218.25 159.631 218.53C159.895 218.802 160.271 218.938 160.759 218.938C161.175 218.938 161.511 218.866 161.767 218.722C162.023 218.57 162.179 218.346 162.235 218.05H163.315C163.243 218.602 162.971 219.042 162.499 219.37C162.035 219.69 161.455 219.85 160.759 219.85ZM162.283 215.974V215.53C162.283 215.01 162.151 214.61 161.887 214.33C161.631 214.05 161.255 213.91 160.759 213.91C160.271 213.91 159.895 214.05 159.631 214.33C159.367 214.61 159.235 215.01 159.235 215.53V215.878H162.367L162.283 215.974ZM175.798 219.85C175.222 219.85 174.726 219.754 174.31 219.562C173.902 219.37 173.586 219.094 173.362 218.734C173.138 218.374 173.022 217.946 173.014 217.45H174.094C174.094 217.89 174.242 218.238 174.538 218.494C174.842 218.75 175.262 218.878 175.798 218.878C176.302 218.878 176.694 218.754 176.974 218.506C177.262 218.258 177.406 217.914 177.406 217.474C177.406 217.122 177.31 216.814 177.118 216.55C176.934 216.286 176.666 216.102 176.314 215.998L175.126 215.626C174.526 215.442 174.062 215.134 173.734 214.702C173.414 214.27 173.254 213.762 173.254 213.178C173.254 212.706 173.358 212.298 173.566 211.954C173.782 211.602 174.082 211.33 174.466 211.138C174.85 210.938 175.302 210.838 175.822 210.838C176.59 210.838 177.206 211.054 177.67 211.486C178.134 211.91 178.37 212.478 178.378 213.19H177.298C177.298 212.758 177.166 212.422 176.902 212.182C176.646 211.934 176.282 211.81 175.81 211.81C175.346 211.81 174.982 211.922 174.718 212.146C174.462 212.37 174.334 212.682 174.334 213.082C174.334 213.442 174.43 213.754 174.622 214.018C174.814 214.282 175.09 214.47 175.45 214.582L176.65 214.966C177.234 215.15 177.686 215.462 178.006 215.902C178.326 216.342 178.486 216.858 178.486 217.45C178.486 217.93 178.374 218.35 178.15 218.71C177.926 219.07 177.61 219.35 177.202 219.55C176.802 219.75 176.334 219.85 175.798 219.85ZM180.749 221.89V213.13H181.829V214.39H182.045L181.829 214.642C181.829 214.138 181.993 213.742 182.321 213.454C182.657 213.158 183.097 213.01 183.641 213.01C184.305 213.01 184.833 213.23 185.225 213.67C185.625 214.102 185.825 214.698 185.825 215.458V217.39C185.825 217.894 185.733 218.33 185.549 218.698C185.373 219.066 185.121 219.35 184.793 219.55C184.473 219.75 184.089 219.85 183.641 219.85C183.105 219.85 182.669 219.702 182.333 219.406C181.997 219.11 181.829 218.714 181.829 218.218L182.045 218.47H181.805L181.829 219.97V221.89H180.749ZM183.281 218.914C183.737 218.914 184.093 218.778 184.349 218.506C184.613 218.234 184.745 217.842 184.745 217.33V215.53C184.745 215.018 184.613 214.626 184.349 214.354C184.093 214.082 183.737 213.946 183.281 213.946C182.841 213.946 182.489 214.086 182.225 214.366C181.961 214.646 181.829 215.034 181.829 215.53V217.33C181.829 217.826 181.961 218.214 182.225 218.494C182.489 218.774 182.841 218.914 183.281 218.914ZM190.741 219.826C190.213 219.826 189.757 219.726 189.373 219.526C188.989 219.326 188.689 219.038 188.473 218.662C188.265 218.278 188.161 217.826 188.161 217.306V215.554C188.161 215.026 188.265 214.574 188.473 214.198C188.689 213.822 188.989 213.534 189.373 213.334C189.757 213.134 190.213 213.034 190.741 213.034C191.269 213.034 191.725 213.134 192.109 213.334C192.493 213.534 192.789 213.822 192.997 214.198C193.213 214.574 193.321 215.022 193.321 215.542V217.306C193.321 217.826 193.213 218.278 192.997 218.662C192.789 219.038 192.493 219.326 192.109 219.526C191.725 219.726 191.269 219.826 190.741 219.826ZM190.741 218.866C191.213 218.866 191.581 218.734 191.845 218.47C192.109 218.206 192.241 217.818 192.241 217.306V215.554C192.241 215.042 192.109 214.654 191.845 214.39C191.581 214.126 191.213 213.994 190.741 213.994C190.277 213.994 189.909 214.126 189.637 214.39C189.373 214.654 189.241 215.042 189.241 215.554V217.306C189.241 217.818 189.373 218.206 189.637 218.47C189.909 218.734 190.277 218.866 190.741 218.866ZM198.956 219.73C198.388 219.73 197.944 219.578 197.624 219.274C197.312 218.97 197.156 218.542 197.156 217.99V214.114H195.296V213.13H197.156V211.27H198.236V213.13H200.876V214.114H198.236V217.99C198.236 218.494 198.476 218.746 198.956 218.746H200.756V219.73H198.956ZM203.151 219.73V218.746H205.491V214.114H203.451V213.13H206.571V218.746H208.791V219.73H203.151ZM205.911 211.942C205.647 211.942 205.439 211.874 205.287 211.738C205.135 211.602 205.059 211.418 205.059 211.186C205.059 210.946 205.135 210.758 205.287 210.622C205.439 210.478 205.647 210.406 205.911 210.406C206.175 210.406 206.383 210.478 206.535 210.622C206.687 210.758 206.763 210.946 206.763 211.186C206.763 211.418 206.687 211.602 206.535 211.738C206.383 211.874 206.175 211.942 205.911 211.942ZM212.267 219.73V214.774H210.347V213.79H212.267V212.65C212.267 212.13 212.431 211.722 212.759 211.426C213.087 211.122 213.539 210.97 214.115 210.97H216.047V211.954H214.115C213.867 211.954 213.675 212.014 213.539 212.134C213.411 212.246 213.347 212.418 213.347 212.65V213.79H216.047V214.774H213.347V219.73H212.267ZM219.258 221.89L220.23 219.322L217.782 213.13H218.982L220.518 217.21C220.574 217.346 220.626 217.51 220.674 217.702C220.722 217.886 220.762 218.042 220.794 218.17C220.826 218.042 220.866 217.886 220.914 217.702C220.962 217.51 221.01 217.346 221.058 217.21L222.498 213.13H223.662L220.41 221.89H219.258ZM235.713 219.85C235.193 219.85 234.737 219.746 234.345 219.538C233.961 219.33 233.661 219.038 233.445 218.662C233.237 218.278 233.133 217.834 233.133 217.33V215.53C233.133 215.018 233.237 214.574 233.445 214.198C233.661 213.822 233.961 213.53 234.345 213.322C234.737 213.114 235.193 213.01 235.713 213.01C236.233 213.01 236.685 213.114 237.069 213.322C237.461 213.53 237.761 213.822 237.969 214.198C238.185 214.574 238.293 215.018 238.293 215.53V216.694H234.189V217.33C234.189 217.85 234.321 218.25 234.585 218.53C234.849 218.802 235.225 218.938 235.713 218.938C236.129 218.938 236.465 218.866 236.721 218.722C236.977 218.57 237.133 218.346 237.189 218.05H238.269C238.197 218.602 237.925 219.042 237.453 219.37C236.989 219.69 236.409 219.85 235.713 219.85ZM237.237 215.974V215.53C237.237 215.01 237.105 214.61 236.841 214.33C236.585 214.05 236.209 213.91 235.713 213.91C235.225 213.91 234.849 214.05 234.585 214.33C234.321 214.61 234.189 215.01 234.189 215.53V215.878H237.321L237.237 215.974ZM240.208 219.73L242.548 216.334L240.352 213.13H241.624L242.932 215.17C242.988 215.258 243.04 215.354 243.088 215.458C243.144 215.562 243.188 215.646 243.22 215.71C243.244 215.646 243.28 215.562 243.328 215.458C243.384 215.354 243.44 215.258 243.496 215.17L244.816 213.13H246.076L243.88 216.346L246.208 219.73H244.936L243.52 217.57C243.464 217.482 243.408 217.382 243.352 217.27C243.304 217.15 243.26 217.054 243.22 216.982C243.188 217.054 243.14 217.15 243.076 217.27C243.02 217.382 242.96 217.482 242.896 217.57L241.468 219.73H240.208ZM251.423 219.73C250.855 219.73 250.411 219.578 250.091 219.274C249.779 218.97 249.623 218.542 249.623 217.99V214.114H247.763V213.13H249.623V211.27H250.703V213.13H253.343V214.114H250.703V217.99C250.703 218.494 250.943 218.746 251.423 218.746H253.223V219.73H251.423ZM258.198 219.85C257.678 219.85 257.222 219.746 256.83 219.538C256.446 219.33 256.146 219.038 255.93 218.662C255.722 218.278 255.618 217.834 255.618 217.33V215.53C255.618 215.018 255.722 214.574 255.93 214.198C256.146 213.822 256.446 213.53 256.83 213.322C257.222 213.114 257.678 213.01 258.198 213.01C258.718 213.01 259.17 213.114 259.554 213.322C259.946 213.53 260.246 213.822 260.454 214.198C260.67 214.574 260.778 215.018 260.778 215.53V216.694H256.674V217.33C256.674 217.85 256.806 218.25 257.07 218.53C257.334 218.802 257.71 218.938 258.198 218.938C258.614 218.938 258.95 218.866 259.206 218.722C259.462 218.57 259.618 218.346 259.674 218.05H260.754C260.682 218.602 260.41 219.042 259.938 219.37C259.474 219.69 258.894 219.85 258.198 219.85ZM259.722 215.974V215.53C259.722 215.01 259.59 214.61 259.326 214.33C259.07 214.05 258.694 213.91 258.198 213.91C257.71 213.91 257.334 214.05 257.07 214.33C256.806 214.61 256.674 215.01 256.674 215.53V215.878H259.806L259.722 215.974ZM263.198 219.73V213.13H264.278V214.39H264.506L264.278 214.642C264.278 214.122 264.434 213.722 264.746 213.442C265.058 213.154 265.49 213.01 266.042 213.01C266.706 213.01 267.234 213.214 267.626 213.622C268.018 214.03 268.214 214.586 268.214 215.29V219.73H267.134V215.41C267.134 214.938 267.006 214.578 266.75 214.33C266.502 214.074 266.162 213.946 265.73 213.946C265.282 213.946 264.926 214.082 264.662 214.354C264.406 214.626 264.278 215.018 264.278 215.53V219.73H263.198ZM272.985 219.826C272.537 219.826 272.145 219.758 271.809 219.622C271.481 219.478 271.217 219.278 271.017 219.022C270.825 218.766 270.709 218.462 270.669 218.11H271.749C271.797 218.342 271.925 218.526 272.133 218.662C272.349 218.798 272.633 218.866 272.985 218.866H273.489C273.913 218.866 274.229 218.782 274.437 218.614C274.645 218.438 274.749 218.206 274.749 217.918C274.749 217.638 274.653 217.418 274.461 217.258C274.277 217.09 274.001 216.978 273.633 216.922L272.745 216.778C272.097 216.666 271.613 216.466 271.293 216.178C270.981 215.882 270.825 215.454 270.825 214.894C270.825 214.302 271.013 213.846 271.389 213.526C271.765 213.198 272.329 213.034 273.081 213.034H273.537C274.169 213.034 274.677 213.182 275.061 213.478C275.445 213.774 275.677 214.174 275.757 214.678H274.677C274.629 214.47 274.509 214.306 274.317 214.186C274.125 214.058 273.865 213.994 273.537 213.994H273.081C272.673 213.994 272.373 214.07 272.181 214.222C271.997 214.374 271.905 214.602 271.905 214.906C271.905 215.178 271.985 215.378 272.145 215.506C272.305 215.634 272.557 215.726 272.901 215.782L273.789 215.926C274.501 216.038 275.017 216.246 275.337 216.55C275.665 216.854 275.829 217.294 275.829 217.87C275.829 218.478 275.633 218.958 275.241 219.31C274.857 219.654 274.273 219.826 273.489 219.826H272.985ZM278.104 219.73V218.746H280.444V214.114H278.404V213.13H281.524V218.746H283.744V219.73H278.104ZM280.864 211.942C280.6 211.942 280.392 211.874 280.24 211.738C280.088 211.602 280.012 211.418 280.012 211.186C280.012 210.946 280.088 210.758 280.24 210.622C280.392 210.478 280.6 210.406 280.864 210.406C281.128 210.406 281.336 210.478 281.488 210.622C281.64 210.758 281.716 210.946 281.716 211.186C281.716 211.418 281.64 211.602 281.488 211.738C281.336 211.874 281.128 211.942 280.864 211.942ZM288.18 219.826C287.652 219.826 287.196 219.726 286.812 219.526C286.428 219.326 286.128 219.038 285.912 218.662C285.704 218.278 285.6 217.826 285.6 217.306V215.554C285.6 215.026 285.704 214.574 285.912 214.198C286.128 213.822 286.428 213.534 286.812 213.334C287.196 213.134 287.652 213.034 288.18 213.034C288.708 213.034 289.164 213.134 289.548 213.334C289.932 213.534 290.228 213.822 290.436 214.198C290.652 214.574 290.76 215.022 290.76 215.542V217.306C290.76 217.826 290.652 218.278 290.436 218.662C290.228 219.038 289.932 219.326 289.548 219.526C289.164 219.726 288.708 219.826 288.18 219.826ZM288.18 218.866C288.652 218.866 289.02 218.734 289.284 218.47C289.548 218.206 289.68 217.818 289.68 217.306V215.554C289.68 215.042 289.548 214.654 289.284 214.39C289.02 214.126 288.652 213.994 288.18 213.994C287.716 213.994 287.348 214.126 287.076 214.39C286.812 214.654 286.68 215.042 286.68 215.554V217.306C286.68 217.818 286.812 218.206 287.076 218.47C287.348 218.734 287.716 218.866 288.18 218.866ZM293.179 219.73V213.13H294.259V214.39H294.487L294.259 214.642C294.259 214.122 294.415 213.722 294.727 213.442C295.039 213.154 295.471 213.01 296.023 213.01C296.687 213.01 297.215 213.214 297.607 213.622C297.999 214.03 298.195 214.586 298.195 215.29V219.73H297.115V215.41C297.115 214.938 296.987 214.578 296.731 214.33C296.483 214.074 296.143 213.946 295.711 213.946C295.263 213.946 294.907 214.082 294.643 214.354C294.387 214.626 294.259 215.018 294.259 215.53V219.73H293.179Z" fill="white" fill-opacity="0.8"/>
<mask id="path-39-inside-4_101_305" fill="white">
<path d="M7.39001 232.73H9.39001V276.73H7.39001V232.73Z"/>
</mask>
<path d="M6.39001 232.73V236.03H8.39001V232.73H6.39001ZM6.39001 240.43V247.03H8.39001V240.43H6.39001ZM6.39001 251.43V258.03H8.39001V251.43H6.39001ZM6.39001 262.43V269.03H8.39001V262.43H6.39001ZM6.39001 273.43V276.73H8.39001V273.43H6.39001ZM5.39001 232.73V236.03H9.39001V232.73H5.39001ZM5.39001 240.43V247.03H9.39001V240.43H5.39001ZM5.39001 251.43V258.03H9.39001V251.43H5.39001ZM5.39001 262.43V269.03H9.39001V262.43H5.39001ZM5.39001 273.43V276.73H9.39001V273.43H5.39001Z" fill="white" fill-opacity="0.2" mask="url(#path-39-inside-4_101_305)"/>
<rect x="31.39" y="356.73" width="236.02" height="30" rx="15" fill="white" fill-opacity="0.05"/>
<rect x="31.89" y="357.23" width="235.02" height="29" rx="14.5" stroke="white" stroke-opacity="0.1"/>
<path d="M45.8196 297.73V288.97H48.6396C49.1836 288.97 49.6556 289.078 50.0556 289.294C50.4556 289.502 50.7636 289.798 50.9796 290.182C51.2036 290.566 51.3156 291.022 51.3156 291.55C51.3156 292.07 51.2036 292.526 50.9796 292.918C50.7636 293.302 50.4556 293.602 50.0556 293.818C49.6556 294.026 49.1836 294.13 48.6396 294.13H46.8996V297.73H45.8196ZM46.8996 293.158H48.6396C49.1116 293.158 49.4876 293.014 49.7676 292.726C50.0556 292.43 50.1996 292.038 50.1996 291.55C50.1996 291.054 50.0556 290.662 49.7676 290.374C49.4876 290.086 49.1116 289.942 48.6396 289.942H46.8996V293.158ZM55.811 297.85C55.291 297.85 54.835 297.746 54.4429 297.538C54.059 297.33 53.759 297.038 53.543 296.662C53.3349 296.278 53.2309 295.834 53.2309 295.33V293.53C53.2309 293.018 53.3349 292.574 53.543 292.198C53.759 291.822 54.059 291.53 54.4429 291.322C54.835 291.114 55.291 291.01 55.811 291.01C56.331 291.01 56.783 291.114 57.167 291.322C57.559 291.53 57.859 291.822 58.067 292.198C58.283 292.574 58.391 293.018 58.391 293.53V294.694H54.2869V295.33C54.2869 295.85 54.419 296.25 54.683 296.53C54.947 296.802 55.323 296.938 55.811 296.938C56.227 296.938 56.563 296.866 56.8189 296.722C57.0749 296.57 57.2309 296.346 57.2869 296.05H58.367C58.295 296.602 58.023 297.042 57.551 297.37C57.087 297.69 56.507 297.85 55.811 297.85ZM57.335 293.974V293.53C57.335 293.01 57.203 292.61 56.939 292.33C56.683 292.05 56.307 291.91 55.811 291.91C55.323 291.91 54.947 292.05 54.683 292.33C54.419 292.61 54.2869 293.01 54.2869 293.53V293.878H57.419L57.335 293.974ZM64.0263 297.73C63.4583 297.73 63.0143 297.578 62.6943 297.274C62.3823 296.97 62.2263 296.542 62.2263 295.99V292.114H60.3663V291.13H62.2263V289.27H63.3063V291.13H65.9463V292.114H63.3063V295.99C63.3063 296.494 63.5463 296.746 64.0263 296.746H65.8263V297.73H64.0263ZM68.5336 297.73V291.13H69.5896V292.39H69.8416L69.4936 293.17C69.4936 292.458 69.6456 291.922 69.9496 291.562C70.2616 291.194 70.7216 291.01 71.3296 291.01C72.0256 291.01 72.5776 291.23 72.9856 291.67C73.4016 292.102 73.6096 292.69 73.6096 293.434V293.83H72.5296V293.53C72.5296 293.01 72.4016 292.614 72.1456 292.342C71.8976 292.062 71.5416 291.922 71.0776 291.922C70.6216 291.922 70.2616 292.062 69.9976 292.342C69.7416 292.622 69.6136 293.018 69.6136 293.53V297.73H68.5336ZM85.2162 297.85C84.5202 297.85 83.9722 297.674 83.5722 297.322C83.1722 296.962 82.9722 296.478 82.9722 295.87C82.9722 295.254 83.1722 294.77 83.5722 294.418C83.9722 294.066 84.5122 293.89 85.1922 293.89H87.2322V293.23C87.2322 292.822 87.1082 292.51 86.8602 292.294C86.6202 292.07 86.2762 291.958 85.8282 291.958C85.4362 291.958 85.1082 292.042 84.8442 292.21C84.5802 292.37 84.4282 292.59 84.3882 292.87H83.3082C83.3802 292.302 83.6482 291.85 84.1122 291.514C84.5762 291.178 85.1562 291.01 85.8522 291.01C86.6122 291.01 87.2122 291.206 87.6522 291.598C88.0922 291.99 88.3122 292.522 88.3122 293.194V297.73H87.2562V296.47H87.0762L87.2562 296.29C87.2562 296.77 87.0682 297.15 86.6922 297.43C86.3242 297.71 85.8322 297.85 85.2162 297.85ZM85.4802 296.998C85.9922 296.998 86.4122 296.87 86.7402 296.614C87.0682 296.358 87.2322 296.03 87.2322 295.63V294.694H85.2162C84.8562 294.694 84.5722 294.794 84.3642 294.994C84.1562 295.194 84.0522 295.466 84.0522 295.81C84.0522 296.178 84.1762 296.47 84.4242 296.686C84.6802 296.894 85.0322 296.998 85.4802 296.998ZM92.9035 297.85C92.2475 297.85 91.7155 297.63 91.3075 297.19C90.9075 296.75 90.7075 296.154 90.7075 295.402V293.47C90.7075 292.71 90.9075 292.11 91.3075 291.67C91.7075 291.23 92.2395 291.01 92.9035 291.01C93.4475 291.01 93.8835 291.158 94.2115 291.454C94.5395 291.75 94.7035 292.146 94.7035 292.642L94.4875 292.39H94.7275L94.7035 290.89V288.97H95.7835V297.73H94.7035V296.47H94.4875L94.7035 296.218C94.7035 296.722 94.5395 297.122 94.2115 297.418C93.8835 297.706 93.4475 297.85 92.9035 297.85ZM93.2635 296.914C93.7115 296.914 94.0635 296.774 94.3195 296.494C94.5755 296.214 94.7035 295.826 94.7035 295.33V293.53C94.7035 293.034 94.5755 292.646 94.3195 292.366C94.0635 292.086 93.7115 291.946 93.2635 291.946C92.8075 291.946 92.4475 292.082 92.1835 292.354C91.9195 292.626 91.7875 293.018 91.7875 293.53V295.33C91.7875 295.842 91.9195 296.234 92.1835 296.506C92.4475 296.778 92.8075 296.914 93.2635 296.914ZM100.399 297.85C99.7428 297.85 99.2108 297.63 98.8028 297.19C98.4028 296.75 98.2028 296.154 98.2028 295.402V293.47C98.2028 292.71 98.4028 292.11 98.8028 291.67C99.2028 291.23 99.7348 291.01 100.399 291.01C100.943 291.01 101.379 291.158 101.707 291.454C102.035 291.75 102.199 292.146 102.199 292.642L101.983 292.39H102.223L102.199 290.89V288.97H103.279V297.73H102.199V296.47H101.983L102.199 296.218C102.199 296.722 102.035 297.122 101.707 297.418C101.379 297.706 100.943 297.85 100.399 297.85ZM100.759 296.914C101.207 296.914 101.559 296.774 101.815 296.494C102.071 296.214 102.199 295.826 102.199 295.33V293.53C102.199 293.034 102.071 292.646 101.815 292.366C101.559 292.086 101.207 291.946 100.759 291.946C100.303 291.946 99.9428 292.082 99.6788 292.354C99.4148 292.626 99.2828 293.018 99.2828 293.53V295.33C99.2828 295.842 99.4148 296.234 99.6788 296.506C99.9428 296.778 100.303 296.914 100.759 296.914ZM108.278 297.85C107.758 297.85 107.302 297.746 106.91 297.538C106.526 297.33 106.226 297.038 106.01 296.662C105.802 296.278 105.698 295.834 105.698 295.33V293.53C105.698 293.018 105.802 292.574 106.01 292.198C106.226 291.822 106.526 291.53 106.91 291.322C107.302 291.114 107.758 291.01 108.278 291.01C108.798 291.01 109.25 291.114 109.634 291.322C110.026 291.53 110.326 291.822 110.534 292.198C110.75 292.574 110.858 293.018 110.858 293.53V294.694H106.754V295.33C106.754 295.85 106.886 296.25 107.15 296.53C107.414 296.802 107.79 296.938 108.278 296.938C108.694 296.938 109.03 296.866 109.286 296.722C109.542 296.57 109.698 296.346 109.754 296.05H110.834C110.762 296.602 110.49 297.042 110.018 297.37C109.554 297.69 108.974 297.85 108.278 297.85ZM109.802 293.974V293.53C109.802 293.01 109.67 292.61 109.406 292.33C109.15 292.05 108.774 291.91 108.278 291.91C107.79 291.91 107.414 292.05 107.15 292.33C106.886 292.61 106.754 293.01 106.754 293.53V293.878H109.886L109.802 293.974ZM115.389 297.85C114.733 297.85 114.201 297.63 113.793 297.19C113.393 296.75 113.193 296.154 113.193 295.402V293.47C113.193 292.71 113.393 292.11 113.793 291.67C114.193 291.23 114.725 291.01 115.389 291.01C115.933 291.01 116.369 291.158 116.697 291.454C117.025 291.75 117.189 292.146 117.189 292.642L116.973 292.39H117.213L117.189 290.89V288.97H118.269V297.73H117.189V296.47H116.973L117.189 296.218C117.189 296.722 117.025 297.122 116.697 297.418C116.369 297.706 115.933 297.85 115.389 297.85ZM115.749 296.914C116.197 296.914 116.549 296.774 116.805 296.494C117.061 296.214 117.189 295.826 117.189 295.33V293.53C117.189 293.034 117.061 292.646 116.805 292.366C116.549 292.086 116.197 291.946 115.749 291.946C115.293 291.946 114.933 292.082 114.669 292.354C114.405 292.626 114.273 293.018 114.273 293.53V295.33C114.273 295.842 114.405 296.234 114.669 296.506C114.933 296.778 115.293 296.914 115.749 296.914ZM130.188 297.85C129.492 297.85 128.944 297.674 128.544 297.322C128.144 296.962 127.944 296.478 127.944 295.87C127.944 295.254 128.144 294.77 128.544 294.418C128.944 294.066 129.484 293.89 130.164 293.89H132.204V293.23C132.204 292.822 132.08 292.51 131.832 292.294C131.592 292.07 131.248 291.958 130.8 291.958C130.408 291.958 130.08 292.042 129.816 292.21C129.552 292.37 129.4 292.59 129.36 292.87H128.28C128.352 292.302 128.62 291.85 129.084 291.514C129.548 291.178 130.128 291.01 130.824 291.01C131.584 291.01 132.184 291.206 132.624 291.598C133.064 291.99 133.284 292.522 133.284 293.194V297.73H132.228V296.47H132.048L132.228 296.29C132.228 296.77 132.04 297.15 131.664 297.43C131.296 297.71 130.804 297.85 130.188 297.85ZM130.452 296.998C130.964 296.998 131.384 296.87 131.712 296.614C132.04 296.358 132.204 296.03 132.204 295.63V294.694H130.188C129.828 294.694 129.544 294.794 129.336 294.994C129.128 295.194 129.024 295.466 129.024 295.81C129.024 296.178 129.148 296.47 129.396 296.686C129.652 296.894 130.004 296.998 130.452 296.998ZM144.795 297.73V292.774H142.875V291.79H144.795V290.65C144.795 290.13 144.959 289.722 145.287 289.426C145.615 289.122 146.067 288.97 146.643 288.97H148.575V289.954H146.643C146.395 289.954 146.203 290.014 146.067 290.134C145.939 290.246 145.875 290.418 145.875 290.65V291.79H148.575V292.774H145.875V297.73H144.795ZM153.25 297.85C152.73 297.85 152.274 297.746 151.882 297.538C151.498 297.33 151.198 297.038 150.982 296.662C150.774 296.278 150.67 295.834 150.67 295.33V293.53C150.67 293.018 150.774 292.574 150.982 292.198C151.198 291.822 151.498 291.53 151.882 291.322C152.274 291.114 152.73 291.01 153.25 291.01C153.77 291.01 154.222 291.114 154.606 291.322C154.998 291.53 155.298 291.822 155.506 292.198C155.722 292.574 155.83 293.018 155.83 293.53V294.694H151.726V295.33C151.726 295.85 151.858 296.25 152.122 296.53C152.386 296.802 152.762 296.938 153.25 296.938C153.666 296.938 154.002 296.866 154.258 296.722C154.514 296.57 154.67 296.346 154.726 296.05H155.806C155.734 296.602 155.462 297.042 154.99 297.37C154.526 297.69 153.946 297.85 153.25 297.85ZM154.774 293.974V293.53C154.774 293.01 154.642 292.61 154.378 292.33C154.122 292.05 153.746 291.91 153.25 291.91C152.762 291.91 152.386 292.05 152.122 292.33C151.858 292.61 151.726 293.01 151.726 293.53V293.878H154.858L154.774 293.974ZM160.169 297.85C159.473 297.85 158.925 297.674 158.525 297.322C158.125 296.962 157.925 296.478 157.925 295.87C157.925 295.254 158.125 294.77 158.525 294.418C158.925 294.066 159.465 293.89 160.145 293.89H162.185V293.23C162.185 292.822 162.061 292.51 161.813 292.294C161.573 292.07 161.229 291.958 160.781 291.958C160.389 291.958 160.061 292.042 159.797 292.21C159.533 292.37 159.381 292.59 159.341 292.87H158.261C158.333 292.302 158.601 291.85 159.065 291.514C159.529 291.178 160.109 291.01 160.805 291.01C161.565 291.01 162.165 291.206 162.605 291.598C163.045 291.99 163.265 292.522 163.265 293.194V297.73H162.209V296.47H162.029L162.209 296.29C162.209 296.77 162.021 297.15 161.645 297.43C161.277 297.71 160.785 297.85 160.169 297.85ZM160.433 296.998C160.945 296.998 161.365 296.87 161.693 296.614C162.021 296.358 162.185 296.03 162.185 295.63V294.694H160.169C159.809 294.694 159.525 294.794 159.317 294.994C159.109 295.194 159.005 295.466 159.005 295.81C159.005 296.178 159.129 296.47 159.377 296.686C159.633 296.894 159.985 296.998 160.433 296.998ZM168.961 297.73C168.393 297.73 167.949 297.578 167.629 297.274C167.317 296.97 167.161 296.542 167.161 295.99V292.114H165.301V291.13H167.161V289.27H168.241V291.13H170.881V292.114H168.241V295.99C168.241 296.494 168.481 296.746 168.961 296.746H170.761V297.73H168.961ZM175.724 297.85C174.964 297.85 174.356 297.626 173.9 297.178C173.444 296.722 173.216 296.106 173.216 295.33V291.13H174.296V295.33C174.296 295.826 174.424 296.214 174.68 296.494C174.936 296.766 175.284 296.902 175.724 296.902C176.172 296.902 176.524 296.766 176.78 296.494C177.044 296.214 177.176 295.826 177.176 295.33V291.13H178.256V295.33C178.256 296.106 178.024 296.722 177.56 297.178C177.096 297.626 176.484 297.85 175.724 297.85ZM180.963 297.73V291.13H182.019V292.39H182.271L181.923 293.17C181.923 292.458 182.075 291.922 182.379 291.562C182.691 291.194 183.151 291.01 183.759 291.01C184.455 291.01 185.007 291.23 185.415 291.67C185.831 292.102 186.039 292.69 186.039 293.434V293.83H184.959V293.53C184.959 293.01 184.831 292.614 184.575 292.342C184.327 292.062 183.971 291.922 183.507 291.922C183.051 291.922 182.691 292.062 182.427 292.342C182.171 292.622 182.043 293.018 182.043 293.53V297.73H180.963ZM190.727 297.85C190.207 297.85 189.751 297.746 189.359 297.538C188.975 297.33 188.675 297.038 188.459 296.662C188.251 296.278 188.147 295.834 188.147 295.33V293.53C188.147 293.018 188.251 292.574 188.459 292.198C188.675 291.822 188.975 291.53 189.359 291.322C189.751 291.114 190.207 291.01 190.727 291.01C191.247 291.01 191.699 291.114 192.083 291.322C192.475 291.53 192.775 291.822 192.983 292.198C193.199 292.574 193.307 293.018 193.307 293.53V294.694H189.203V295.33C189.203 295.85 189.335 296.25 189.599 296.53C189.863 296.802 190.239 296.938 190.727 296.938C191.143 296.938 191.479 296.866 191.735 296.722C191.991 296.57 192.147 296.346 192.203 296.05H193.283C193.211 296.602 192.939 297.042 192.467 297.37C192.003 297.69 191.423 297.85 190.727 297.85ZM192.251 293.974V293.53C192.251 293.01 192.119 292.61 191.855 292.33C191.599 292.05 191.223 291.91 190.727 291.91C190.239 291.91 189.863 292.05 189.599 292.33C189.335 292.61 189.203 293.01 189.203 293.53V293.878H192.335L192.251 293.974ZM203.449 297.73V291.13H204.505V292.39H204.757L204.409 293.17C204.409 292.458 204.561 291.922 204.865 291.562C205.177 291.194 205.637 291.01 206.245 291.01C206.941 291.01 207.493 291.23 207.901 291.67C208.317 292.102 208.525 292.69 208.525 293.434V293.83H207.445V293.53C207.445 293.01 207.317 292.614 207.061 292.342C206.813 292.062 206.457 291.922 205.993 291.922C205.537 291.922 205.177 292.062 204.913 292.342C204.657 292.622 204.529 293.018 204.529 293.53V297.73H203.449ZM213.213 297.85C212.693 297.85 212.237 297.746 211.845 297.538C211.461 297.33 211.161 297.038 210.945 296.662C210.737 296.278 210.633 295.834 210.633 295.33V293.53C210.633 293.018 210.737 292.574 210.945 292.198C211.161 291.822 211.461 291.53 211.845 291.322C212.237 291.114 212.693 291.01 213.213 291.01C213.733 291.01 214.185 291.114 214.569 291.322C214.961 291.53 215.261 291.822 215.469 292.198C215.685 292.574 215.793 293.018 215.793 293.53V294.694H211.689V295.33C211.689 295.85 211.821 296.25 212.085 296.53C212.349 296.802 212.725 296.938 213.213 296.938C213.629 296.938 213.965 296.866 214.221 296.722C214.477 296.57 214.633 296.346 214.689 296.05H215.769C215.697 296.602 215.425 297.042 214.953 297.37C214.489 297.69 213.909 297.85 213.213 297.85ZM214.737 293.974V293.53C214.737 293.01 214.605 292.61 214.341 292.33C214.085 292.05 213.709 291.91 213.213 291.91C212.725 291.91 212.349 292.05 212.085 292.33C211.821 292.61 211.689 293.01 211.689 293.53V293.878H214.821L214.737 293.974ZM222.124 299.89V297.97L222.148 296.47H221.908L222.124 296.218C222.124 296.714 221.96 297.11 221.632 297.406C221.304 297.702 220.868 297.85 220.324 297.85C219.66 297.85 219.132 297.63 218.74 297.19C218.356 296.75 218.164 296.15 218.164 295.39V293.458C218.164 292.698 218.36 292.102 218.752 291.67C219.144 291.23 219.668 291.01 220.324 291.01C220.868 291.01 221.304 291.158 221.632 291.454C221.96 291.742 222.124 292.138 222.124 292.642L221.908 292.39H222.124V291.13H223.204V299.89H222.124ZM220.684 296.914C221.132 296.914 221.484 296.774 221.74 296.494C221.996 296.214 222.124 295.826 222.124 295.33V293.53C222.124 293.034 221.996 292.646 221.74 292.366C221.484 292.086 221.132 291.946 220.684 291.946C220.228 291.946 219.872 292.082 219.616 292.354C219.368 292.626 219.244 293.018 219.244 293.53V295.33C219.244 295.842 219.368 296.234 219.616 296.506C219.872 296.778 220.228 296.914 220.684 296.914ZM228.191 297.85C227.431 297.85 226.823 297.626 226.367 297.178C225.911 296.722 225.683 296.106 225.683 295.33V291.13H226.763V295.33C226.763 295.826 226.891 296.214 227.147 296.494C227.403 296.766 227.751 296.902 228.191 296.902C228.639 296.902 228.991 296.766 229.247 296.494C229.511 296.214 229.643 295.826 229.643 295.33V291.13H230.723V295.33C230.723 296.106 230.491 296.722 230.027 297.178C229.563 297.626 228.951 297.85 228.191 297.85ZM235.698 297.85C235.178 297.85 234.722 297.746 234.33 297.538C233.946 297.33 233.646 297.038 233.43 296.662C233.222 296.278 233.118 295.834 233.118 295.33V293.53C233.118 293.018 233.222 292.574 233.43 292.198C233.646 291.822 233.946 291.53 234.33 291.322C234.722 291.114 235.178 291.01 235.698 291.01C236.218 291.01 236.67 291.114 237.054 291.322C237.446 291.53 237.746 291.822 237.954 292.198C238.17 292.574 238.278 293.018 238.278 293.53V294.694H234.174V295.33C234.174 295.85 234.306 296.25 234.57 296.53C234.834 296.802 235.21 296.938 235.698 296.938C236.114 296.938 236.45 296.866 236.706 296.722C236.962 296.57 237.118 296.346 237.174 296.05H238.254C238.182 296.602 237.91 297.042 237.438 297.37C236.974 297.69 236.394 297.85 235.698 297.85ZM237.222 293.974V293.53C237.222 293.01 237.09 292.61 236.826 292.33C236.57 292.05 236.194 291.91 235.698 291.91C235.21 291.91 234.834 292.05 234.57 292.33C234.306 292.61 234.174 293.01 234.174 293.53V293.878H237.306L237.222 293.974ZM242.99 297.826C242.542 297.826 242.15 297.758 241.814 297.622C241.486 297.478 241.222 297.278 241.022 297.022C240.83 296.766 240.714 296.462 240.674 296.11H241.754C241.802 296.342 241.93 296.526 242.138 296.662C242.354 296.798 242.638 296.866 242.99 296.866H243.494C243.918 296.866 244.234 296.782 244.442 296.614C244.65 296.438 244.754 296.206 244.754 295.918C244.754 295.638 244.658 295.418 244.466 295.258C244.282 295.09 244.006 294.978 243.638 294.922L242.75 294.778C242.102 294.666 241.618 294.466 241.298 294.178C240.986 293.882 240.83 293.454 240.83 292.894C240.83 292.302 241.018 291.846 241.394 291.526C241.77 291.198 242.334 291.034 243.086 291.034H243.542C244.174 291.034 244.682 291.182 245.066 291.478C245.45 291.774 245.682 292.174 245.762 292.678H244.682C244.634 292.47 244.514 292.306 244.322 292.186C244.13 292.058 243.87 291.994 243.542 291.994H243.086C242.678 291.994 242.378 292.07 242.186 292.222C242.002 292.374 241.91 292.602 241.91 292.906C241.91 293.178 241.99 293.378 242.15 293.506C242.31 293.634 242.562 293.726 242.906 293.782L243.794 293.926C244.506 294.038 245.022 294.246 245.342 294.55C245.67 294.854 245.834 295.294 245.834 295.87C245.834 296.478 245.638 296.958 245.246 297.31C244.862 297.654 244.278 297.826 243.494 297.826H242.99ZM251.409 297.73C250.841 297.73 250.397 297.578 250.077 297.274C249.765 296.97 249.609 296.542 249.609 295.99V292.114H247.749V291.13H249.609V289.27H250.689V291.13H253.329V292.114H250.689V295.99C250.689 296.494 250.929 296.746 251.409 296.746H253.209V297.73H251.409Z" fill="white" fill-opacity="0.8"/>
<mask id="path-44-inside-5_101_305" fill="white">
<path d="M7.39001 310.73H9.39001V354.73H7.39001V310.73Z"/>
</mask>
<path d="M6.39001 310.73V314.03H8.39001V310.73H6.39001ZM6.39001 318.43V325.03H8.39001V318.43H6.39001ZM6.39001 329.43V336.03H8.39001V329.43H6.39001ZM6.39001 340.43V347.03H8.39001V340.43H6.39001ZM6.39001 351.43V354.73H8.39001V351.43H6.39001ZM5.39001 310.73V314.03H9.39001V310.73H5.39001ZM5.39001 318.43V325.03H9.39001V318.43H5.39001ZM5.39001 329.43V336.03H9.39001V329.43H5.39001ZM5.39001 340.43V347.03H9.39001V340.43H5.39001ZM5.39001 351.43V354.73H9.39001V351.43H5.39001Z" fill="white" fill-opacity="0.2" mask="url(#path-44-inside-5_101_305)"/>
</g>
<defs>
<linearGradient id="paint0_linear_101_305" x1="350.39" y1="0.72998" x2="350.39" y2="355.73" gradientUnits="userSpaceOnUse">
<stop stop-color="white" stop-opacity="0"/>
<stop offset="0.2" stop-color="white"/>
<stop offset="0.8" stop-color="white"/>
<stop offset="1" stop-color="white" stop-opacity="0"/>
</linearGradient>
<clipPath id="clip0_101_305">
<rect width="700" height="355" fill="white" transform="translate(0.390015 0.72998)"/>
</clipPath>
<clipPath id="clip1_101_305">
<rect width="16" height="16" fill="white" transform="translate(0.390015 51.73)"/>
</clipPath>
<clipPath id="clip2_101_305">
<rect width="16" height="16" fill="white" transform="translate(0.390015 129.73)"/>
</clipPath>
<clipPath id="clip3_101_305">
<rect width="16" height="16" fill="white" transform="translate(0.390015 207.73)"/>
</clipPath>
<clipPath id="clip4_101_305">
<rect width="16" height="16" fill="white" transform="translate(0.390015 285.73)"/>
</clipPath>
</defs>
</svg>
