<svg width="1048" height="1076" viewBox="0 0 1048 1076" fill="none" xmlns="http://www.w3.org/2000/svg">
<g style="mix-blend-mode:overlay">
<path opacity="0.03" d="M524 256L527.263 560.137L653.41 266.904L533.567 561.218L774 298.872L539.219 563.306L877.553 349.726L543.834 566.26L957.013 416L547.097 569.877L1006.96 493.178L548.786 573.912L1024 576L548.786 578.088L1006.96 658.822L547.097 582.123L957.013 736L543.834 585.74L877.553 802.274L539.219 588.694L774 853.128L533.567 590.782L653.41 885.096L527.263 591.863L524 896L520.737 591.863L394.59 885.096L514.433 590.782L274 853.128L508.781 588.694L170.447 802.274L504.166 585.74L90.987 736L500.903 582.123L41.037 658.822L499.214 578.088L24 576L499.214 573.912L41.037 493.178L500.903 569.877L90.987 416L504.166 566.26L170.447 349.726L508.781 563.306L274 298.872L514.433 561.218L394.59 266.904L520.737 560.137L524 256Z" fill="white"/>
<path d="M652.842 453.212L681.297 420.158" stroke="url(#paint0_linear_101_8)" stroke-width="3" stroke-linecap="round"/>
<path d="M647.283 515.501L719.114 460.717" stroke="url(#paint1_linear_101_8)" stroke-width="3" stroke-linecap="round"/>
<path d="M401.519 510.06L328.336 457.095" stroke="url(#paint2_linear_101_8)" stroke-width="3" stroke-linecap="round"/>
<path d="M484.752 489.931L458.836 454.851" stroke="url(#paint3_linear_101_8)" stroke-width="3" stroke-linecap="round"/>
<path d="M384.199 434.55L353.959 403.121" stroke="url(#paint4_linear_101_8)" stroke-width="3" stroke-linecap="round"/>
<path d="M568.275 487.245L586.725 447.725" stroke="url(#paint5_linear_101_8)" stroke-width="3" stroke-linecap="round"/>
<path d="M526.675 519.201L527.763 486.2" stroke="url(#paint6_linear_101_8)" stroke-width="3" stroke-linecap="round"/>
</g>
<defs>
<linearGradient id="paint0_linear_101_8" x1="682.035" y1="418.348" x2="651.623" y2="453.676" gradientUnits="userSpaceOnUse">
<stop offset="0.071" stop-color="white" stop-opacity="0"/>
<stop offset="0.495" stop-color="white"/>
<stop offset="1" stop-color="white" stop-opacity="0"/>
</linearGradient>
<linearGradient id="paint1_linear_101_8" x1="720.492" y1="458.884" x2="646.276" y2="515.488" gradientUnits="userSpaceOnUse">
<stop stop-color="white" stop-opacity="0"/>
<stop offset="0.495" stop-color="white"/>
<stop offset="1" stop-color="white" stop-opacity="0"/>
</linearGradient>
<linearGradient id="paint2_linear_101_8" x1="326.184" y1="456.304" x2="401.797" y2="511.028" gradientUnits="userSpaceOnUse">
<stop stop-color="white" stop-opacity="0"/>
<stop offset="0.495" stop-color="white"/>
<stop offset="1" stop-color="white" stop-opacity="0"/>
</linearGradient>
<linearGradient id="paint3_linear_101_8" x1="457.235" y1="453.73" x2="484.934" y2="491.223" gradientUnits="userSpaceOnUse">
<stop stop-color="white" stop-opacity="0"/>
<stop offset="0.495" stop-color="white"/>
<stop offset="1" stop-color="white" stop-opacity="0"/>
</linearGradient>
<linearGradient id="paint4_linear_101_8" x1="352.227" y1="402.216" x2="384.547" y2="435.807" gradientUnits="userSpaceOnUse">
<stop offset="0.071" stop-color="white" stop-opacity="0"/>
<stop offset="0.495" stop-color="white"/>
<stop offset="1" stop-color="white" stop-opacity="0"/>
</linearGradient>
<linearGradient id="paint5_linear_101_8" x1="586.946" y1="445.783" x2="567.227" y2="488.021" gradientUnits="userSpaceOnUse">
<stop stop-color="white" stop-opacity="0"/>
<stop offset="0.495" stop-color="white"/>
<stop offset="1" stop-color="white" stop-opacity="0"/>
</linearGradient>
<linearGradient id="paint6_linear_101_8" x1="527.2" y1="484.407" x2="526.014" y2="520.407" gradientUnits="userSpaceOnUse">
<stop stop-color="white" stop-opacity="0"/>
<stop offset="0.495" stop-color="white"/>
<stop offset="1" stop-color="white" stop-opacity="0"/>
</linearGradient>
</defs>
</svg>
