<svg width="300" height="300" viewBox="0 0 300 300" fill="none" xmlns="http://www.w3.org/2000/svg">
<rect width="300" height="300" rx="40" fill="url(#paint0_linear_85_2)"/>
<rect width="300" height="300" rx="40" fill="url(#paint1_linear_85_2)"/>
<path d="M199.776 109.367V119.525C199.776 128.477 177.481 135.778 150 135.778C122.52 135.778 100.224 128.477 100.224 119.525V109.367C100.224 100.415 122.52 93.1133 150 93.1133C177.481 93.1133 199.776 100.415 199.776 109.367ZM199.776 132.223V155.079C199.776 164.031 177.481 171.333 150 171.333C122.52 171.333 100.224 164.031 100.224 155.079V132.223C110.918 139.588 130.491 143.016 150 143.016C169.509 143.016 189.082 139.588 199.776 132.223ZM199.776 167.777V190.633C199.776 199.586 177.481 206.887 150 206.887C122.52 206.887 100.224 199.586 100.224 190.633V167.777C110.918 175.142 130.491 178.571 150 178.571C169.509 178.571 189.082 175.142 199.776 167.777Z" fill="#F4F4F4"/>
<defs>
<linearGradient id="paint0_linear_85_2" x1="-163" y1="75" x2="458" y2="220" gradientUnits="userSpaceOnUse">
<stop stop-color="#E9F3AC"/>
<stop offset="1" stop-color="#BAFF99"/>
</linearGradient>
<linearGradient id="paint1_linear_85_2" x1="-163" y1="75" x2="458" y2="220" gradientUnits="userSpaceOnUse">
<stop stop-color="#8E9949"/>
<stop offset="1" stop-color="#93FF60"/>
</linearGradient>
</defs>
</svg>
