<svg width="257" height="250" viewBox="0 0 257 250" fill="none" xmlns="http://www.w3.org/2000/svg">
<path fill-rule="evenodd" clip-rule="evenodd" d="M128.429 0.150635C57.8666 0.150635 0.714478 57.3028 0.714478 127.865C0.714478 184.378 37.2727 232.112 88.0391 249.034C94.4248 250.151 96.8195 246.32 96.8195 242.967C96.8195 239.934 96.6598 229.877 96.6598 219.181C64.5716 225.087 56.2702 211.358 53.7159 204.174C52.2791 200.502 46.053 189.168 40.6252 186.135C36.1552 183.74 29.7695 177.833 40.4655 177.673C50.523 177.514 57.707 186.933 60.1016 190.764C71.5959 210.081 89.9548 204.653 97.2984 201.301C98.4159 192.999 101.768 187.412 105.44 184.219C77.0238 181.026 47.3302 170.011 47.3302 121.16C47.3302 107.271 52.2791 95.7767 60.4209 86.8367C59.1438 83.6438 54.6738 70.5531 61.698 52.9924C61.698 52.9924 72.3941 49.6399 96.8195 66.0831C107.037 63.2096 117.892 61.7728 128.748 61.7728C139.604 61.7728 150.459 63.2096 160.677 66.0831C185.102 49.4803 195.798 52.9924 195.798 52.9924C202.822 70.5531 198.352 83.6438 197.075 86.8367C205.217 95.7767 210.166 107.111 210.166 121.16C210.166 170.17 180.313 181.026 151.896 184.219C156.526 188.21 160.517 195.873 160.517 207.846C160.517 224.928 160.357 238.657 160.357 242.967C160.357 246.32 162.752 250.311 169.138 249.034C194.491 240.475 216.522 224.18 232.13 202.444C247.738 180.708 256.136 154.624 256.143 127.865C256.143 57.3028 198.991 0.150635 128.429 0.150635Z" fill="#B3B3B3"/>
</svg>
