<svg width="300" height="300" viewBox="0 0 300 300" fill="none" xmlns="http://www.w3.org/2000/svg">
<rect width="300" height="300" rx="40" fill="url(#paint0_linear_85_3)"/>
<rect width="300" height="300" rx="40" fill="url(#paint1_linear_85_3)"/>
<path d="M199.776 195.448V197.951C199.776 198.975 198.866 199.771 197.842 199.771H102.044C101.021 199.885 100.224 198.975 100.224 197.951V102.153C100.224 101.129 101.021 100.219 102.044 100.219H104.548C105.571 100.219 106.368 101.129 106.368 102.153V191.807C106.368 192.831 107.164 193.627 108.188 193.627H197.842C198.866 193.627 199.776 194.424 199.776 195.448ZM146.416 135.261L168.374 140.723C169.285 140.95 170.536 140.495 171.105 139.585L177.931 128.094C178.5 127.184 179.638 126.956 180.434 127.411L185.327 130.369C186.123 130.938 186.92 130.483 186.92 129.459L187.261 108.297C187.261 107.273 186.578 106.932 185.668 107.387L167.237 117.627C166.327 118.082 166.327 118.992 167.123 119.447L172.015 122.405C172.812 122.86 173.153 123.998 172.584 124.908L168.033 132.417C167.578 133.327 166.327 133.782 165.303 133.555L144.596 128.321C143.572 128.094 142.207 128.549 141.524 129.231L117.973 152.783C117.176 153.465 117.176 154.603 117.973 155.399L119.679 157.22C120.476 157.902 121.614 157.902 122.296 157.22L143.344 136.058C144.141 135.375 145.506 135.034 146.416 135.261ZM139.362 187.37H148.123C149.147 187.37 149.943 186.573 149.943 185.549V144.363C149.943 143.339 149.147 142.315 148.237 142.088C147.326 141.86 145.961 142.315 145.278 142.998L138.793 149.483C138.111 150.166 137.542 151.645 137.542 152.669V185.549C137.542 186.573 138.338 187.37 139.362 187.37ZM118.883 166.891V185.549C118.883 186.573 119.679 187.37 120.703 187.37H129.464C130.488 187.37 131.284 186.573 131.284 185.549V158.813C131.284 157.789 130.715 157.561 130.033 158.358L122.296 165.98C121.614 166.663 118.883 165.867 118.883 166.891ZM174.86 147.208V185.549C174.86 186.573 175.656 187.37 176.68 187.37H185.44C186.464 187.37 187.261 186.573 187.261 185.549V140.609C187.261 139.585 186.578 138.333 185.668 137.878L182.596 136.058C181.686 135.489 180.548 135.717 180.093 136.627L175.77 143.795C175.201 144.705 174.86 146.184 174.86 147.208ZM168.602 185.549V149.028C168.602 148.004 167.806 146.98 166.782 146.753L157.907 144.591C156.997 144.363 156.201 144.932 156.201 145.956V185.549C156.201 186.573 156.997 187.37 158.021 187.37H166.782C167.806 187.37 168.602 186.573 168.602 185.549Z" fill="#FAFAFA"/>
<defs>
<linearGradient id="paint0_linear_85_3" x1="-163" y1="75" x2="458" y2="220" gradientUnits="userSpaceOnUse">
<stop stop-color="#E9F3AC"/>
<stop offset="1" stop-color="#BAFF99"/>
</linearGradient>
<linearGradient id="paint1_linear_85_3" x1="-163" y1="75" x2="458" y2="220" gradientUnits="userSpaceOnUse">
<stop stop-color="#F2ACF3"/>
<stop offset="1" stop-color="#8821DA"/>
</linearGradient>
</defs>
</svg>
