<svg width="256" height="256" viewBox="0 0 256 256" fill="none" xmlns="http://www.w3.org/2000/svg">
<path d="M127.714 0C93.0186 0 88.6869 0.159643 75.0641 0.766286C61.4625 1.40486 52.2032 3.54407 44.0614 6.705C35.6642 9.96171 28.5335 14.3359 21.4347 21.4347C14.3359 28.5335 9.95107 35.6536 6.705 44.0614C3.54407 52.2032 1.39421 61.4625 0.766286 75.0641C0.127714 88.6869 0 93.0186 0 127.714C0 162.41 0.159643 166.742 0.766286 180.365C1.40486 193.955 3.54407 203.225 6.705 211.367C9.91161 219.891 14.9383 227.612 21.4347 233.994C27.8127 240.495 35.5354 245.522 44.0614 248.724C52.2139 251.874 61.4731 254.034 75.0641 254.662C88.6869 255.301 93.0186 255.429 127.714 255.429C162.41 255.429 166.742 255.269 180.365 254.662C193.955 254.024 203.225 251.874 211.367 248.724C219.889 245.513 227.609 240.487 233.994 233.994C240.497 227.618 245.525 219.894 248.724 211.367C251.874 203.225 254.034 193.955 254.662 180.365C255.301 166.742 255.429 162.41 255.429 127.714C255.429 93.0186 255.269 88.6869 254.662 75.0641C254.024 61.4731 251.874 52.1926 248.724 44.0614C245.515 35.5388 240.489 27.8175 233.994 21.4347C227.62 14.9281 219.896 9.89988 211.367 6.705C203.225 3.54407 193.955 1.39421 180.365 0.766286C166.742 0.127714 162.41 0 127.714 0ZM127.714 22.9886C161.803 22.9886 165.869 23.1589 179.332 23.7442C191.784 24.3296 198.543 26.3943 203.034 28.161C209.015 30.4705 213.251 33.2376 217.742 37.697C222.202 42.167 224.969 46.4135 227.278 52.3948C229.024 56.8861 231.11 63.6443 231.674 76.0964C232.28 89.5703 232.419 93.6146 232.419 127.714C232.419 161.814 232.259 165.869 231.631 179.332C230.982 191.784 228.907 198.543 227.151 203.034C225.073 208.576 221.807 213.596 217.583 217.742C213.455 221.971 208.438 225.228 202.895 227.278C198.425 229.024 191.561 231.11 179.109 231.674C165.55 232.28 161.559 232.419 127.395 232.419C93.2208 232.419 89.2297 232.259 75.6814 231.631C63.2186 230.982 56.3539 228.907 51.8839 227.151C46.338 225.099 41.3228 221.829 37.2074 217.583C32.9352 213.482 29.6586 208.458 27.6289 202.895C25.8728 198.425 23.8081 191.561 23.1589 179.109C22.6799 165.699 22.5096 161.559 22.5096 127.555C22.5096 93.5401 22.6799 89.3894 23.1589 75.8197C23.8081 63.3676 25.8728 56.5136 27.6289 52.0436C29.8639 45.9771 32.7268 41.8264 37.2074 37.3458C41.6668 32.8864 45.8281 30.0129 51.8839 27.7885C56.3539 26.0218 63.0696 23.9464 75.5217 23.3079C89.0914 22.8289 93.0824 22.6693 127.235 22.6693L127.714 22.9886ZM127.714 62.133C119.102 62.133 110.574 63.8293 102.617 67.1251C94.6607 70.4209 87.4311 75.2515 81.3413 81.3413C75.2515 87.4311 70.4208 94.6607 67.1251 102.617C63.8293 110.574 62.133 119.102 62.133 127.714C62.133 136.327 63.8293 144.854 67.1251 152.811C70.4208 160.768 75.2515 167.997 81.3413 174.087C87.4311 180.177 94.6607 185.008 102.617 188.303C110.574 191.599 119.102 193.296 127.714 193.296C145.108 193.296 161.788 186.386 174.087 174.087C186.386 161.788 193.296 145.108 193.296 127.714C193.296 110.321 186.386 93.6402 174.087 81.3413C161.788 69.0424 145.108 62.133 127.714 62.133ZM127.714 170.286C104.194 170.286 85.1429 151.235 85.1429 127.714C85.1429 104.194 104.194 85.1429 127.714 85.1429C151.235 85.1429 170.286 104.194 170.286 127.714C170.286 151.235 151.235 170.286 127.714 170.286ZM211.218 59.5468C211.07 63.5126 209.391 67.2667 206.533 70.0201C203.675 72.7735 199.861 74.3119 195.892 74.3119C191.924 74.3119 188.11 72.7735 185.252 70.0201C182.394 67.2667 180.715 63.5126 180.567 59.5468C180.567 55.4822 182.181 51.584 185.056 48.7099C187.93 45.8357 191.828 44.2211 195.892 44.2211C199.957 44.2211 203.855 45.8357 206.729 48.7099C209.603 51.584 211.218 55.4822 211.218 59.5468Z" fill="#B3B3B3"/>
</svg>
