<svg width="300" height="300" viewBox="0 0 300 300" fill="none" xmlns="http://www.w3.org/2000/svg">
<rect width="299.552" height="299.552" rx="40" fill="url(#paint0_linear_85_4)"/>
<rect width="299.552" height="299.552" rx="40" fill="url(#paint1_linear_85_4)"/>
<path d="M100 100H199.552V199.552H100V100Z" fill="white" fill-opacity="0.01"/>
<path d="M143.554 178.812C163.026 178.812 178.812 163.026 178.812 143.554C178.812 124.082 163.026 108.296 143.554 108.296C124.082 108.296 108.296 124.082 108.296 143.554C108.296 163.026 124.082 178.812 143.554 178.812Z" fill="#2F88FF" stroke="#FAFAFA" stroke-width="8.29599" stroke-linejoin="round"/>
<path d="M155.286 129.748C152.284 126.745 148.136 124.888 143.554 124.888C138.972 124.888 134.824 126.745 131.822 129.748" stroke="white" stroke-width="8.29599" stroke-linecap="round" stroke-linejoin="round"/>
<path d="M168.902 168.902L186.5 186.5" stroke="#FAFAFA" stroke-width="8.29599" stroke-linecap="round" stroke-linejoin="round"/>
<defs>
<linearGradient id="paint0_linear_85_4" x1="-162.757" y1="74.888" x2="457.316" y2="219.671" gradientUnits="userSpaceOnUse">
<stop stop-color="#E9F3AC"/>
<stop offset="1" stop-color="#BAFF99"/>
</linearGradient>
<linearGradient id="paint1_linear_85_4" x1="-162.757" y1="74.888" x2="457.316" y2="219.671" gradientUnits="userSpaceOnUse">
<stop stop-color="#ACF3DA"/>
<stop offset="1" stop-color="#49CCDE"/>
</linearGradient>
</defs>
</svg>
