<svg width="256" height="256" viewBox="0 0 256 256" fill="none" xmlns="http://www.w3.org/2000/svg">
<path d="M127.848 0C145.548 0 162.129 3.35689 177.591 10.0707C193.053 16.7844 206.582 25.8887 218.178 37.3835C229.775 48.8783 238.93 62.3567 245.644 77.8187C252.358 93.2808 255.714 109.862 255.714 127.562C255.714 145.262 252.358 161.843 245.644 177.305C238.93 192.767 229.775 206.296 218.178 217.892C206.582 229.489 193.053 238.644 177.591 245.358C162.129 252.072 145.548 255.429 127.848 255.429C110.148 255.429 93.5667 252.072 78.1046 245.358C62.6426 238.644 49.1642 229.489 37.6694 217.892C26.1746 206.296 17.0703 192.767 10.3565 177.305C3.64278 161.843 0.285889 145.262 0.285889 127.562C0.285889 109.862 3.64278 93.2808 10.3565 77.8187C17.0703 62.3567 26.1746 48.8783 37.6694 37.3835C49.1642 25.8887 62.6426 16.7844 78.1046 10.0707C93.5667 3.35689 110.148 0 127.848 0ZM191.323 100.096C197.223 95.6204 202.411 90.229 206.887 83.9222C204.039 85.1429 201.14 86.1601 198.19 86.9739C195.24 87.7877 192.137 88.398 188.882 88.8049C192.137 86.7704 194.985 84.2782 197.427 81.3282C199.868 78.3782 201.597 75.1739 202.615 71.7153C199.563 73.3429 196.409 74.8179 193.154 76.1403C189.899 77.4627 186.542 78.4291 183.084 79.0394C180.235 76.1912 176.878 73.8515 173.013 72.0205C169.147 70.1894 164.875 69.2739 160.196 69.2739C155.923 69.2739 151.905 70.0877 148.141 71.7153C144.378 73.3429 141.123 75.5808 138.376 78.4291C135.629 81.2773 133.442 84.5834 131.815 88.3472C130.187 92.1109 129.373 96.129 129.373 100.401C129.373 101.622 129.424 102.843 129.526 104.063C129.628 105.284 129.78 106.403 129.984 107.42C117.167 106.81 105.265 103.657 94.2787 97.9601C83.2925 92.2635 73.9339 84.6342 66.2029 75.0722C63.3547 79.7515 61.9305 84.9394 61.9305 90.6359C61.9305 95.9256 63.2021 100.859 65.7452 105.437C68.2883 110.014 71.5943 113.727 75.6633 116.576C70.3736 116.169 65.6943 114.846 61.6254 112.608V112.913C61.6254 120.644 64.0159 127.307 68.7969 132.902C73.5779 138.497 79.5288 142.006 86.6494 143.431C85.2253 143.838 83.852 144.143 82.5296 144.346C81.2072 144.55 79.8339 144.651 78.4098 144.651C77.3926 144.651 76.4262 144.6 75.5107 144.499C74.5952 144.397 73.6288 144.244 72.6115 144.041C74.646 150.144 78.2572 155.231 83.4451 159.3C88.633 163.368 94.6856 165.403 101.603 165.403C96.3132 169.675 90.3623 172.981 83.7503 175.321C77.1382 177.661 70.2719 178.831 63.1512 178.831C61.7271 178.831 60.4047 178.78 59.184 178.678C57.9633 178.576 56.7426 178.424 55.5219 178.22C62.4392 182.696 69.9159 186.155 77.952 188.596C85.9882 191.037 94.3804 192.258 103.129 192.258C117.37 192.258 129.984 189.562 140.97 184.171C151.956 178.78 161.162 171.862 168.588 163.419C176.014 154.976 181.659 145.516 185.525 135.038C189.391 124.561 191.323 114.236 191.323 104.063V100.096Z" fill="#B3B3B3"/>
</svg>
