<svg width="256" height="256" viewBox="0 0 256 256" fill="none" xmlns="http://www.w3.org/2000/svg">
<path d="M186.636 153.074C183.435 151.453 167.846 143.846 164.933 142.761C162.019 141.723 159.904 141.18 157.781 144.381C155.705 147.502 149.591 154.646 147.723 156.729C145.855 158.813 144.019 158.972 140.867 157.56C137.666 155.939 127.441 152.611 115.3 141.723C105.817 133.286 99.5031 122.893 97.6273 119.692C95.7594 116.531 97.4197 114.743 99.0002 113.163C100.453 111.71 102.201 109.507 103.821 107.591C105.362 105.676 105.857 104.39 106.982 102.315C108.02 100.072 107.485 98.324 106.695 96.7436C105.905 95.1631 99.543 79.4942 96.8849 73.2521C94.3466 67.058 91.6885 67.8482 89.7329 67.8482C87.905 67.6806 85.7818 67.6806 83.6665 67.6806C81.5512 67.6806 78.095 68.4708 75.1815 71.504C72.268 74.7049 64.0384 82.3518 64.0384 97.8212C64.0384 113.33 75.4289 128.337 77.0094 130.58C78.6298 132.655 99.4153 164.584 131.304 178.305C138.911 181.506 144.818 183.422 149.431 185.002C157.038 187.413 163.983 187.077 169.467 186.287C175.533 185.289 188.257 178.592 190.923 171.113C193.628 163.586 193.628 157.352 192.838 155.939C192.048 154.486 189.973 153.696 186.772 152.283L186.636 153.074ZM128.806 231.482H128.638C109.76 231.482 91.0979 226.366 74.7983 216.803L70.9749 214.52L31.0642 224.913L41.7922 186.08L39.2139 182.089C28.6935 165.334 23.082 146.001 23.082 126.134C23.082 68.1835 70.5199 20.9132 128.885 20.9132C157.158 20.9132 183.683 31.9286 203.638 51.8839C223.593 71.6717 234.609 98.1963 234.609 126.301C234.529 184.212 187.131 231.482 128.845 231.482H128.806ZM218.812 36.7099C194.53 13.2583 162.602 0 128.638 0C58.5866 0 1.54621 56.7929 1.5063 126.589C1.5063 148.875 7.32528 170.618 18.4684 189.863L0.428711 255.429L67.8619 237.844C86.4443 247.862 107.357 253.226 128.646 253.265H128.686C198.777 253.265 255.817 196.472 255.857 126.629C255.857 92.8323 242.679 61.0235 218.653 37.117L218.812 36.7099Z" fill="#B3B3B3"/>
</svg>
