<svg width="22" height="23" viewBox="0 0 22 23" fill="none" xmlns="http://www.w3.org/2000/svg">
<path d="M8.35312 3.98145H6.53125C5.8019 3.98145 5.10243 4.27118 4.58671 4.7869C4.07098 5.30263 3.78125 6.0021 3.78125 6.73145V17.0439C3.78125 17.7733 4.07098 18.4728 4.58671 18.9885C5.10243 19.5042 5.8019 19.7939 6.53125 19.7939H15.4688C16.1981 19.7939 16.8976 19.5042 17.4133 18.9885C17.929 18.4728 18.2188 17.7733 18.2188 17.0439V6.73145C18.2188 6.0021 17.929 5.30263 17.4133 4.7869C16.8976 4.27118 16.1981 3.98145 15.4688 3.98145H13.6469M13.5919 4.35957L13.1904 5.7662C13.0544 6.24226 12.7671 6.66108 12.3719 6.95929C11.9767 7.2575 11.4951 7.41885 11 7.41895C9.9825 7.41895 9.08875 6.7452 8.80963 5.7662L8.40675 4.35957C8.3482 4.15486 8.33798 3.93934 8.37692 3.73001C8.41585 3.52068 8.50287 3.32325 8.63112 3.15328C8.75936 2.98331 8.92532 2.84545 9.11593 2.75055C9.30654 2.65566 9.51658 2.60633 9.7295 2.60645H12.2705C12.4834 2.60633 12.6935 2.65566 12.8841 2.75055C13.0747 2.84545 13.2406 2.98331 13.3689 3.15328C13.4971 3.32325 13.5841 3.52068 13.6231 3.73001C13.662 3.93934 13.6504 4.15486 13.5919 4.35957Z" stroke="white" stroke-width="2.0625" stroke-linecap="round" stroke-linejoin="round"/>
</svg>
