<svg width="23" height="23" viewBox="0 0 23 23" fill="none" xmlns="http://www.w3.org/2000/svg">
<path d="M14.08 13.7802L19.9238 19.6239M15.7988 8.96765C15.7988 9.82535 15.6298 10.6746 15.3016 11.4671C14.9734 12.2595 14.4923 12.9795 13.8858 13.5859C13.2793 14.1924 12.5593 14.6735 11.7669 15.0017C10.9745 15.33 10.1252 15.4989 9.26752 15.4989C8.40982 15.4989 7.56052 15.33 6.76812 15.0017C5.97571 14.6735 5.25571 14.1924 4.64923 13.5859C4.04274 12.9795 3.56165 12.2595 3.23343 11.4671C2.9052 10.6746 2.73627 9.82535 2.73627 8.96765C2.73627 7.23546 3.42438 5.57421 4.64923 4.34936C5.87407 3.12451 7.53532 2.4364 9.26752 2.4364C10.9997 2.4364 12.661 3.12451 13.8858 4.34936C15.1107 5.57421 15.7988 7.23546 15.7988 8.96765Z" stroke="white" stroke-width="2.0625" stroke-linecap="round" stroke-linejoin="round"/>
</svg>
