<svg width="22" height="23" viewBox="0 0 22 23" fill="none" xmlns="http://www.w3.org/2000/svg">
<path d="M5.5 2.60645V5.7002M5.5 5.7002V8.79395M5.5 5.7002H2.40625M5.5 5.7002H8.59375M16.5 16.7002L19.25 13.9502M16.5 16.7002L13.75 19.4502M16.5 16.7002L19.25 19.4502M16.5 16.7002L13.75 13.9502M13.4062 5.7002H19.5938M2.40625 16.7002H8.59375" stroke="white" stroke-width="2.0625" stroke-linecap="round"/>
<path d="M5.5 14.6377C6.06954 14.6377 6.53125 14.176 6.53125 13.6064C6.53125 13.0369 6.06954 12.5752 5.5 12.5752C4.93046 12.5752 4.46875 13.0369 4.46875 13.6064C4.46875 14.176 4.93046 14.6377 5.5 14.6377Z" fill="white"/>
<path d="M5.5 20.8252C6.06954 20.8252 6.53125 20.3635 6.53125 19.7939C6.53125 19.2244 6.06954 18.7627 5.5 18.7627C4.93046 18.7627 4.46875 19.2244 4.46875 19.7939C4.46875 20.3635 4.93046 20.8252 5.5 20.8252Z" fill="white"/>
</svg>
