<svg width="32" height="33" viewBox="0 0 32 33" fill="none" xmlns="http://www.w3.org/2000/svg">
<g clip-path="url(#clip0_101_380)">
<path d="M20.5 12.3799C20.5 12.3799 15.73 17.4599 14.5 21.3799L11.5 18.3799M28.5 16.8799C28.5 20.1951 27.183 23.3745 24.8388 25.7187C22.4946 28.0629 19.3152 29.3799 16 29.3799C12.6848 29.3799 9.50537 28.0629 7.16117 25.7187C4.81696 23.3745 3.5 20.1951 3.5 16.8799C3.5 13.5647 4.81696 10.3853 7.16117 8.04105C9.50537 5.69684 12.6848 4.37988 16 4.37988C19.3152 4.37988 22.4946 5.69684 24.8388 8.04105C27.183 10.3853 28.5 13.5647 28.5 16.8799Z" stroke="white" stroke-width="3" stroke-linecap="round" stroke-linejoin="round"/>
</g>
<defs>
<clipPath id="clip0_101_380">
<rect width="32" height="32" fill="white" transform="translate(0 0.879883)"/>
</clipPath>
</defs>
</svg>
