<svg width="32" height="33" viewBox="0 0 32 33" fill="none" xmlns="http://www.w3.org/2000/svg">
<g clip-path="url(#clip0_101_413)">
<path fill-rule="evenodd" clip-rule="evenodd" d="M5.5 4.87988C5.10218 4.87988 4.72064 5.03792 4.43934 5.31922C4.15804 5.60053 4 5.98206 4 6.37988C4 6.77771 4.15804 7.15924 4.43934 7.44054C4.72064 7.72185 5.10218 7.87988 5.5 7.87988H16.5C16.8978 7.87988 17.2794 7.72185 17.5607 7.44054C17.842 7.15924 18 6.77771 18 6.37988C18 5.98206 17.842 5.60053 17.5607 5.31922C17.2794 5.03792 16.8978 4.87988 16.5 4.87988H5.5ZM23.5 4.87988C23.1022 4.87988 22.7206 5.03792 22.4393 5.31922C22.158 5.60053 22 5.98206 22 6.37988C22 6.77771 22.158 7.15924 22.4393 7.44054C22.7206 7.72185 23.1022 7.87988 23.5 7.87988H26.5C26.8978 7.87988 27.2794 7.72185 27.5607 7.44054C27.842 7.15924 28 6.77771 28 6.37988C28 5.98206 27.842 5.60053 27.5607 5.31922C27.2794 5.03792 26.8978 4.87988 26.5 4.87988H23.5ZM16 27.3799C16 26.9821 16.158 26.6005 16.4393 26.3192C16.7206 26.0379 17.1022 25.8799 17.5 25.8799H26.5C26.8978 25.8799 27.2794 26.0379 27.5607 26.3192C27.842 26.6005 28 26.9821 28 27.3799C28 27.7777 27.842 28.1592 27.5607 28.4405C27.2794 28.7218 26.8978 28.8799 26.5 28.8799H17.5C17.1022 28.8799 16.7206 28.7218 16.4393 28.4405C16.158 28.1592 16 27.7777 16 27.3799ZM5.5 25.8799C5.10218 25.8799 4.72064 26.0379 4.43934 26.3192C4.15804 26.6005 4 26.9821 4 27.3799C4 27.7777 4.15804 28.1592 4.43934 28.4405C4.72064 28.7218 5.10218 28.8799 5.5 28.8799H10.5C10.8978 28.8799 11.2794 28.7218 11.5607 28.4405C11.842 28.1592 12 27.7777 12 27.3799C12 26.9821 11.842 26.6005 11.5607 26.3192C11.2794 26.0379 10.8978 25.8799 10.5 25.8799H5.5ZM4 20.3799C4 19.9821 4.15804 19.6005 4.43934 19.3192C4.72064 19.0379 5.10218 18.8799 5.5 18.8799H14.5C14.8978 18.8799 15.2794 19.0379 15.5607 19.3192C15.842 19.6005 16 19.9821 16 20.3799C16 20.7777 15.842 21.1592 15.5607 21.4405C15.2794 21.7218 14.8978 21.8799 14.5 21.8799H5.5C5.10218 21.8799 4.72064 21.7218 4.43934 21.4405C4.15804 21.1592 4 20.7777 4 20.3799ZM21.5 18.8799C21.1022 18.8799 20.7206 19.0379 20.4393 19.3192C20.158 19.6005 20 19.9821 20 20.3799C20 20.7777 20.158 21.1592 20.4393 21.4405C20.7206 21.7218 21.1022 21.8799 21.5 21.8799H26.5C26.8978 21.8799 27.2794 21.7218 27.5607 21.4405C27.842 21.1592 28 20.7777 28 20.3799C28 19.9821 27.842 19.6005 27.5607 19.3192C27.2794 19.0379 26.8978 18.8799 26.5 18.8799H21.5ZM4 13.3799C4 12.9821 4.15804 12.6005 4.43934 12.3192C4.72064 12.0379 5.10218 11.8799 5.5 11.8799H8.5C8.89782 11.8799 9.27936 12.0379 9.56066 12.3192C9.84196 12.6005 10 12.9821 10 13.3799C10 13.7777 9.84196 14.1592 9.56066 14.4405C9.27936 14.7218 8.89782 14.8799 8.5 14.8799H5.5C5.10218 14.8799 4.72064 14.7218 4.43934 14.4405C4.15804 14.1592 4 13.7777 4 13.3799ZM15.5 11.8799C15.1022 11.8799 14.7206 12.0379 14.4393 12.3192C14.158 12.6005 14 12.9821 14 13.3799C14 13.7777 14.158 14.1592 14.4393 14.4405C14.7206 14.7218 15.1022 14.8799 15.5 14.8799H26.5C26.8978 14.8799 27.2794 14.7218 27.5607 14.4405C27.842 14.1592 28 13.7777 28 13.3799C28 12.9821 27.842 12.6005 27.5607 12.3192C27.2794 12.0379 26.8978 11.8799 26.5 11.8799H15.5Z" fill="white"/>
</g>
<defs>
<clipPath id="clip0_101_413">
<rect width="32" height="32" fill="white" transform="translate(0 0.879883)"/>
</clipPath>
</defs>
</svg>
