<svg width="48" height="48" viewBox="0 0 48 48" fill="none" xmlns="http://www.w3.org/2000/svg">
<g clip-path="url(#clip0_101_65)">
<path d="M30.1994 17.7905C30.1994 17.7905 23.1934 25.2518 21.3869 31.0093L16.9806 26.603M41.9494 24.3999C41.9494 29.2691 40.0151 33.9389 36.572 37.3819C33.129 40.825 28.4592 42.7593 23.59 42.7593C18.7208 42.7593 14.051 40.825 10.608 37.3819C7.16491 33.9389 5.23062 29.2691 5.23062 24.3999C5.23062 19.5307 7.16491 14.8609 10.608 11.4179C14.051 7.97481 18.7208 6.04053 23.59 6.04053C28.4592 6.04053 33.129 7.97481 36.572 11.4179C40.0151 14.8609 41.9494 19.5307 41.9494 24.3999Z" stroke="#59D499" stroke-width="4.40625" stroke-linecap="round" stroke-linejoin="round"/>
</g>
<defs>
<clipPath id="clip0_101_65">
<rect width="47" height="47" fill="white" transform="translate(0.0899963 0.899902)"/>
</clipPath>
</defs>
</svg>
