<svg width="109" height="29" viewBox="0 0 109 29" fill="none" xmlns="http://www.w3.org/2000/svg">
<g clip-path="url(#clip0_101_846)">
<mask id="mask0_101_846" style="mask-type:luminance" maskUnits="userSpaceOnUse" x="0" y="0" width="109" height="29">
<path d="M0 0.299805H108.059V28.2998H0V0.299805Z" fill="white"/>
</mask>
<g mask="url(#mask0_101_846)">
<path fill-rule="evenodd" clip-rule="evenodd" d="M7 18.3729V21.2939L0 14.2939L1.46 12.8339L7 18.3749V18.3729ZM9.921 21.2939H7L14 28.2939L15.46 26.8339L9.921 21.2939ZM26.535 15.7559L27.996 14.2939L13.996 0.293945L12.538 1.75995L18.077 7.29795H14.73L10.864 3.43995L9.404 4.89995L11.809 7.30395H10.129V18.1699H20.994V16.4899L23.399 18.8939L24.859 17.4339L20.994 13.5679V10.2209L26.535 15.7559ZM7.73 6.56995L6.265 8.03195L7.833 9.59795L9.294 8.13795L7.73 6.56995ZM20.162 19.0019L18.702 20.4639L20.268 22.0319L21.73 20.5699L20.162 19.0019ZM4.596 9.70395L3.134 11.1659L7 15.0319V12.1089L4.596 9.70395ZM16.192 21.2999H13.268L17.134 25.1659L18.596 23.7039L16.192 21.2999Z" fill="#FF6363"/>
<path d="M106.152 21.2777C105.209 21.2777 104.472 21.0217 103.945 20.5077C103.419 19.9947 103.156 19.2817 103.156 18.3777V12.7777H101.464V10.6827H103.165L103.467 7.88274H105.459V10.6827H108.057V12.7827H105.459V18.0757C105.453 18.3647 105.56 18.6437 105.758 18.8547C105.859 18.9629 105.982 19.0479 106.119 19.104C106.256 19.1601 106.403 19.1859 106.551 19.1797H108.057V21.2777H106.152ZM95.98 21.4747C94.723 21.4747 93.712 21.1747 92.947 20.5747C92.1868 19.9803 91.6654 19.1324 91.478 18.1857H93.978C94.087 18.5497 94.33 18.8597 94.657 19.0527C95.058 19.2837 95.517 19.3967 95.98 19.3787C97.313 19.3787 97.983 19.0057 97.983 18.2847C97.983 17.9247 97.773 17.6507 97.354 17.4617C96.866 17.2539 96.3561 17.102 95.834 17.0087C95.2292 16.8928 94.6308 16.7459 94.041 16.5687C93.4388 16.3911 92.9045 16.0355 92.508 15.5487C92.092 15.0497 91.881 14.3967 91.881 13.5867C91.8746 13.1603 91.9667 12.7382 92.15 12.3532C92.3333 11.9682 92.603 11.6306 92.938 11.3667C93.645 10.7767 94.625 10.4827 95.878 10.4847C97.13 10.4847 98.118 10.7647 98.864 11.3227C99.5976 11.8784 100.102 12.684 100.281 13.5867H97.778C97.512 12.9197 96.88 12.5867 95.883 12.5867C94.813 12.5867 94.282 12.9207 94.282 13.5907C94.2837 13.7439 94.3263 13.8939 94.4054 14.025C94.4845 14.1562 94.5973 14.2638 94.732 14.3367C95.074 14.5447 95.455 14.6817 95.852 14.7387C96.348 14.8227 96.839 14.9357 97.322 15.0787C97.823 15.2207 98.314 15.3967 98.792 15.6047C99.257 15.8157 99.651 16.1587 99.925 16.5897C100.241 17.0978 100.399 17.6886 100.378 18.2867C100.388 18.7322 100.292 19.1737 100.097 19.5745C99.9025 19.9753 99.6147 20.3237 99.258 20.5907C98.513 21.1787 97.42 21.4737 95.98 21.4747ZM88.526 11.5427C87.757 10.8497 86.676 10.5027 85.292 10.5027C84.184 10.5027 83.256 10.8007 82.508 11.3967C81.7642 11.9764 81.238 12.7905 81.015 13.7067H83.378C83.498 13.3597 83.728 13.0617 84.032 12.8567C84.4004 12.6088 84.8383 12.4851 85.282 12.5037C85.8386 12.473 86.3866 12.651 86.819 13.0027C87.0094 13.1798 87.1583 13.3968 87.2551 13.6381C87.352 13.8794 87.3942 14.1392 87.379 14.3987V14.9067H84.685C83.435 14.9067 82.456 15.2167 81.751 15.8397C81.4113 16.1298 81.1402 16.4915 80.9571 16.8989C80.774 17.3063 80.6834 17.7492 80.692 18.1957C80.6776 18.6386 80.7581 19.0794 80.9282 19.4885C81.0983 19.8976 81.3539 20.2656 81.678 20.5677C82.335 21.1897 83.206 21.5007 84.291 21.5007C84.9633 21.5162 85.6286 21.3614 86.225 21.0507C86.705 20.8177 87.11 20.4557 87.397 20.0057H87.494L87.681 21.3127H89.682V14.4057C89.683 13.1927 89.298 12.2377 88.526 11.5427ZM87.39 17.2027C87.404 17.517 87.3486 17.8305 87.2276 18.1209C87.1066 18.4113 86.923 18.6714 86.69 18.8827C86.227 19.2947 85.594 19.5007 84.791 19.5027C84.207 19.5027 83.759 19.3677 83.451 19.1047C83.3011 18.9833 83.181 18.8291 83.1001 18.654C83.0191 18.4789 82.9794 18.2876 82.984 18.0947C82.984 17.1607 83.594 16.6987 84.791 16.6987H87.39V17.2027ZM74.69 21.4977C73.175 21.4977 71.963 21.0107 71.055 20.0377C70.149 19.0647 69.692 17.7197 69.692 15.9977C69.692 14.2777 70.146 12.9377 71.049 11.9627C71.952 10.9877 73.168 10.5027 74.691 10.5027C75.928 10.5027 76.953 10.8327 77.767 11.4937C78.5654 12.1301 79.1342 13.0096 79.387 13.9987H77.095C76.8701 13.5603 76.5239 13.1956 76.0978 12.9481C75.6716 12.7007 75.1833 12.5808 74.691 12.6027C74.3178 12.5897 73.9466 12.6629 73.6063 12.8168C73.2659 12.9706 72.9657 13.2009 72.729 13.4897C72.231 14.0827 71.982 14.9197 71.982 15.9987C71.982 17.0777 72.232 17.9137 72.729 18.5087C72.9654 18.7982 73.2654 19.0291 73.6058 19.1835C73.9461 19.3379 74.3175 19.4115 74.691 19.3987C75.1836 19.4197 75.6719 19.299 76.098 19.0508C76.5241 18.8027 76.8701 18.4376 77.095 17.9987H79.387C79.1345 18.9894 78.5658 19.8707 77.767 20.5087C76.956 21.1677 75.929 21.4977 74.69 21.4977ZM61.169 25.3037L62.769 21.3017L58.472 10.7067H60.972L63.872 18.2047H63.967L66.872 10.7067H69.372L63.568 25.3037H61.169ZM56.312 11.5427C55.542 10.8497 54.462 10.5027 53.075 10.5027C51.968 10.5027 51.041 10.8007 50.292 11.3967C49.5508 11.977 49.028 12.7912 48.809 13.7067H51.171C51.291 13.3597 51.52 13.0617 51.824 12.8567C52.193 12.6097 52.631 12.4867 53.074 12.5037C53.724 12.5037 54.238 12.6697 54.611 13.0027C54.8018 13.1795 54.951 13.3964 55.0478 13.6378C55.1447 13.8792 55.1867 14.1391 55.171 14.3987V14.9067H52.464C51.22 14.9067 50.242 15.2167 49.532 15.8397C49.1919 16.1295 48.9204 16.4911 48.7371 16.8985C48.5537 17.306 48.4632 17.749 48.472 18.1957C48.4588 18.637 48.5398 19.076 48.7096 19.4835C48.8795 19.891 49.1343 20.2575 49.457 20.5587C50.114 21.1807 50.985 21.4917 52.071 21.4917C52.7423 21.507 53.4066 21.3522 54.002 21.0417C54.4827 20.8087 54.8894 20.447 55.177 19.9967H55.272L55.47 21.3037H57.467V14.3967C57.467 13.1897 57.082 12.2377 56.312 11.5427ZM55.172 17.2027C55.186 17.517 55.1306 17.8305 55.0096 18.1209C54.8886 18.4113 54.705 18.6714 54.472 18.8827C54.008 19.2947 53.375 19.5007 52.571 19.5027C51.988 19.5027 51.539 19.3677 51.231 19.1047C51.0814 18.983 50.9616 18.8288 50.8807 18.6538C50.7998 18.4787 50.7598 18.2875 50.764 18.0947C50.771 17.1647 51.374 16.6997 52.571 16.6987H55.171L55.172 17.2027ZM43.344 15.9987C43.701 15.9037 44.045 15.7687 44.371 15.5947C44.751 15.3867 45.107 15.1367 45.431 14.8487C45.823 14.4877 46.125 14.0397 46.314 13.5417C46.541 12.9567 46.654 12.3327 46.644 11.7047C46.644 10.3727 46.219 9.30474 45.368 8.50174C44.516 7.69874 43.408 7.29974 42.045 7.30374H36.245V21.3037H38.745V16.1067H40.641L44.244 21.3017H47.044L43.344 15.9987ZM38.744 13.8927V9.50574H41.841C42.551 9.50574 43.111 9.69274 43.521 10.0827C43.932 10.4727 44.141 11.0067 44.141 11.6997C44.141 12.3917 43.934 12.9337 43.518 13.3197C43.0608 13.7176 42.4673 13.923 41.862 13.8927H38.744Z" fill="white"/>
</g>
</g>
<defs>
<clipPath id="clip0_101_846">
<rect width="109" height="28" fill="white" transform="translate(0 0.299805)"/>
</clipPath>
</defs>
</svg>
